<svg width="110" height="50" viewBox="0 0 110 50" fill="none" xmlns="http://www.w3.org/2000/svg">
<path d="M33.3218 40.8614C26.4815 42.9768 25.7528 32.8491 26.7682 28.3234C26.9237 27.7686 26.909 27.1802 26.7259 26.6338C26.1477 25.2298 24.5305 24.7992 23.3692 23.9849C19.2462 20.7088 12.4623 20.2408 9.11033 24.8086C8.87599 25.1303 8.67292 25.4735 8.50387 25.8335C8.15326 26.5063 8.05972 27.2829 8.2406 28.0192C8.34339 28.367 8.54997 28.6755 8.83296 28.9037C16.8251 32.3623 39.1608 15.0693 45.4745 9.46715C46.7004 8.31514 47.8529 7.08813 48.9253 5.79326C49.4527 5.15159 49.9439 4.4813 50.3968 3.78549C50.845 3.11288 51.2127 2.39034 51.4922 1.63263C51.5581 1.45319 51.6085 1.26842 51.6426 1.08037C51.6775 0.926309 51.6775 0.766426 51.6426 0.612362C51.6426 0.588961 51.6426 0.584281 51.6426 0.612362C51.6426 0.635762 51.6426 0.612362 51.6661 0.612362C51.61 0.616038 51.5547 0.627054 51.5016 0.645123C51.3192 0.707061 51.1442 0.788669 50.9797 0.888489C50.2621 1.33502 49.58 1.8357 48.9394 2.38613C47.6277 3.50468 46.3772 4.67939 45.1314 5.84006C43.8855 7.00073 42.6773 8.18012 41.4738 9.39695C34.2668 16.6324 27.3277 24.1206 20.4451 31.6509C15.8754 36.6774 11.3262 41.7272 6.79731 46.8005L6.73149 46.8707H6.63747C6.20025 47.0064 5.77714 47.1328 5.30701 47.2357L5.11426 47.2732H4.98263C4.93271 47.2799 4.8821 47.2799 4.83219 47.2732C4.78408 47.2581 4.73962 47.2332 4.7016 47.2002C4.66358 47.1672 4.63282 47.1267 4.61123 47.0813C4.58792 47.0227 4.58792 46.9574 4.61123 46.8988C4.6179 46.8647 4.62896 46.8317 4.64414 46.8005L4.68175 46.7537L4.72406 46.7163L4.78047 46.6695L4.8698 46.6133L5.03434 46.5244C5.2412 46.4167 5.44805 46.3184 5.65021 46.2295L5.80535 46.1593L5.94168 46.0938C6.02033 46.0509 6.09575 46.0025 6.16734 45.9487C6.33189 45.827 6.49173 45.696 6.63747 45.5556C6.95715 45.2795 7.26744 44.9846 7.57772 44.6804C8.79064 43.4729 9.92835 42.1953 11.0943 40.9363C17.9346 33.2281 24.6104 25.3609 31.2062 17.4748C24.8219 25.5059 18.4658 33.5979 11.6443 41.2733C10.5113 42.5556 9.33599 43.8286 8.09956 45.0548C7.78928 45.3637 7.47429 45.6632 7.1358 45.9581C6.9667 46.1096 6.78936 46.2518 6.60456 46.384C6.50231 46.4628 6.39383 46.5332 6.28017 46.5946L6.11563 46.6741L5.96519 46.7397C5.76304 46.8286 5.56558 46.9222 5.38223 47.0205L5.2506 47.0907L5.20359 47.1187V47.086C5.21785 47.0614 5.22741 47.0345 5.23179 47.0064C5.24815 46.953 5.24815 46.896 5.23179 46.8426C5.20704 46.7853 5.16411 46.7376 5.10956 46.7069C5.08854 46.6913 5.06454 46.6802 5.03904 46.6741C5.01736 46.6694 4.99491 46.6694 4.97322 46.6741H5.01083L5.15187 46.6461C5.56088 46.5571 5.9934 46.4261 6.41181 46.2997L6.26137 46.4027C10.7746 41.3263 15.327 36.2796 19.9185 31.2625C26.82 23.7415 33.7778 16.2393 40.966 8.98042C42.1758 7.76983 43.4076 6.57328 44.6612 5.39077C45.9071 4.21138 47.1529 3.05071 48.4975 1.93684C49.1646 1.36248 49.875 0.839892 50.6224 0.373675C50.8377 0.24633 51.0663 0.142754 51.3041 0.0647873C51.4546 0.0113105 51.615 -0.00943569 51.7742 0.00394573L51.9388 0.050747C51.9979 0.0777932 52.0532 0.112407 52.1033 0.15371C52.178 0.227095 52.2343 0.316851 52.2679 0.415797C52.3381 0.661028 52.3478 0.919538 52.2961 1.1693C52.2579 1.38845 52.2029 1.60437 52.1315 1.81515C51.8403 2.61878 51.452 3.38415 50.975 4.09437C50.5108 4.81383 50.0054 5.50607 49.4612 6.16767C48.3677 7.48813 47.1916 8.73864 45.94 9.91177C38.1641 16.609 19.9937 30.7711 9.70269 29.9895C9.22326 29.8809 8.77379 29.6684 8.38634 29.367C8.00883 29.0689 7.72765 28.6669 7.57772 28.211C7.44756 27.7756 7.41704 27.3166 7.4884 26.8679C7.55189 26.4317 7.68023 26.0074 7.8692 25.6089C9.40181 22.4358 13.2192 20.5076 16.9238 20.8118C19.4193 21.0412 21.7941 21.9875 23.7594 23.5356C25.2027 24.4997 27.464 25.3749 27.3841 27.481C26.2605 32.0488 26.0725 42.7335 33.3218 40.8614Z" fill="white"/>
<path d="M36.8673 35.5682C34.0465 32.016 27.4647 41.6523 33.031 39.5978C34.9115 38.9004 35.3017 36.7101 36.7685 35.4886C37.0083 35.292 36.9942 35.7647 36.966 35.615C30.9719 46.2342 43.6606 33.6961 45.3577 30.888C49.7769 25.2064 53.1242 18.8882 56.8852 12.8228C57.1579 12.9257 56.3117 12.5326 57.4494 13.1457C51.3142 21.9958 45.0804 30.991 39.2555 40.1266C39.1415 40.3054 39.0424 40.4933 38.9593 40.6882C39.0486 40.5431 38.6396 40.3185 38.5832 40.3981C43.7217 35.3856 51.0792 29.2828 44.9393 41.1843C44.9393 41.086 44.676 41.0112 44.6243 41.0439C46.7352 39.1391 48.9307 36.7476 50.0637 34.225C50.1012 34.2764 50.155 34.3136 50.2165 34.3306C50.278 34.3476 50.3434 34.3434 50.4022 34.3186C49.0952 36.2281 47.9011 38.6056 47.7883 40.9269C47.7689 40.9114 47.7465 40.9003 47.7225 40.8941C50.2893 39.2748 51.4835 36.1485 54.0127 34.4403C57.99 32.7695 52.9503 39.551 52.2639 40.5244C51.2108 39.8084 51.9348 40.3606 51.7279 40.1734C55.1175 35.7086 61.9391 29.2453 55.9214 39.8318C55.7146 39.9113 56.3916 39.7709 55.4513 39.4527C55.3667 39.4995 55.4137 39.4527 55.4043 39.4527C58.8127 35.2406 65.5073 29.1564 60.0492 39.3544C59.9661 39.4924 59.8968 39.6382 59.8423 39.7896C59.8423 39.6633 59.5978 39.5463 59.5367 39.5931C61.6053 38.0486 62.9169 35.732 64.4636 33.7242C66.1655 33.2562 63.2225 38.6898 63.9935 39.7475C66.142 38.526 67.4442 36.1391 68.9956 34.2671L69.367 34.2343L69.5692 34.5339C67.8015 38.8162 67.1951 41.9378 71.6519 36.8412C72.8272 35.5073 73.932 34.108 74.9944 32.6946C76.0569 31.2812 77.0865 29.8257 78.0832 28.3561C82.0417 22.4999 85.6522 16.4178 88.8961 10.1411L89.1969 9.55604L89.3474 9.26587L89.3756 9.20503C89.4038 9.25183 89.3192 9.09739 89.4179 9.425C90.1701 9.70113 89.7987 9.425 89.9115 9.49988L89.8692 9.55136C89.606 9.86961 89.3474 10.244 89.0935 10.6044C88.5905 11.3251 88.0968 12.0552 87.6173 12.804C86.6551 14.2892 85.7149 15.7884 84.7966 17.3016C82.9819 20.325 81.2565 23.3858 79.6816 26.5402C78.0844 29.6452 76.7067 32.8573 75.5586 36.1532C74.9968 37.7932 74.5691 39.4757 74.2799 41.1843C74.1412 42.0229 74.0704 42.8711 74.0683 43.7209C74.0545 44.5638 74.1718 45.4037 74.4162 46.2108C74.6418 47.0154 75.1134 47.7302 75.7655 48.256C76.4393 48.8032 77.2536 49.1518 78.1161 49.2622C79.0174 49.3963 79.9323 49.4136 80.8381 49.3137L81.1437 49.2716H81.1813C81.1484 49.2716 81.1578 49.2716 81.1014 49.3465C81.0722 49.3841 81.0557 49.43 81.0544 49.4775C81.0512 49.525 81.0627 49.5724 81.0873 49.6132C81.1018 49.6411 81.1209 49.6664 81.1437 49.6881C81.0525 49.6526 80.958 49.6259 80.8616 49.6085L80.5325 49.5337C80.0624 49.4447 79.6252 49.3699 79.1598 49.3043C77.3028 49.0422 75.427 48.8363 73.5512 48.6819C71.6754 48.5274 69.7902 48.3636 67.9097 48.2139C52.841 47.1727 37.7288 46.8962 22.6318 47.3855C15.1098 47.6429 7.55492 48.1203 0.0658176 48.9252L0 48.3028C9.15805 47.6288 18.3145 46.9939 27.4694 46.398C36.6275 45.8083 45.8043 45.2045 54.9577 44.7646C64.111 44.3247 73.2926 43.8988 82.4788 43.6227C87.0673 43.4823 91.6557 43.3793 96.2488 43.3606C98.543 43.3606 100.839 43.384 103.136 43.4308C103.71 43.4308 104.279 43.4729 104.857 43.4916C105.435 43.5103 106.004 43.5291 106.573 43.5759L108.293 43.7022L110 43.9081L108.289 43.7256L106.573 43.6273C105.999 43.5805 105.426 43.5805 104.852 43.5571C104.279 43.5337 103.705 43.515 103.131 43.515C100.837 43.4869 98.543 43.4869 96.2488 43.515C91.6604 43.5837 87.0735 43.7147 82.4883 43.9081C73.3208 44.2732 64.1534 44.7693 54.9953 45.3122C45.8373 45.8551 36.6604 46.4027 27.5165 47.0111C18.3725 47.6195 9.21446 48.2513 0.0658176 48.9252L0 48.3028C7.52201 47.4931 15.0722 47.0158 22.6366 46.7583C37.7586 46.2691 52.8958 46.5455 67.9896 47.5867C69.8701 47.7271 71.7506 47.8831 73.6311 48.0547C75.5116 48.2279 77.3921 48.4198 79.2726 48.6725C79.7427 48.7427 80.2128 48.8176 80.683 48.9112L81.0403 48.9908C81.1749 49.023 81.3069 49.0652 81.4352 49.1171L81.4963 49.1452L81.5762 49.1967C81.6239 49.2333 81.6653 49.2776 81.6984 49.3277C81.7269 49.3825 81.7399 49.444 81.7361 49.5056C81.732 49.5664 81.7109 49.6248 81.6749 49.6741C81.6362 49.7275 81.5865 49.7721 81.5292 49.8051L81.4399 49.8379L81.3129 49.8753C81.1828 49.9032 81.0508 49.9219 80.918 49.9315C79.9449 50.04 78.9616 50.0195 77.9938 49.8706C77.0029 49.7462 76.0674 49.3455 75.2953 48.7146C74.5513 48.1115 74.0127 47.2942 73.7533 46.3746C73.4863 45.5201 73.3531 44.6298 73.3584 43.735C73.3584 42.8534 73.4339 41.9735 73.5841 41.1048C73.8809 39.3731 74.3195 37.6685 74.8957 36.0081C76.0556 32.6845 77.4442 29.4444 79.0516 26.3109C80.636 23.1612 82.366 20.0723 84.1901 17.0349C85.1022 15.5154 86.0424 14.0115 87.0109 12.5232C87.4935 11.7775 87.9903 11.0381 88.5012 10.3049C88.7597 9.93513 89.0089 9.57476 89.3098 9.20503L89.3803 9.13015L89.4273 9.08335C89.5589 9.14887 89.2016 8.8353 89.9915 9.12079C90.0996 9.48116 89.9915 9.35012 89.9915 9.42032V9.48116L89.9491 9.5654L89.7987 9.86493L89.4931 10.4499C86.2354 16.7406 82.6092 22.8353 78.6332 28.7024C77.6303 30.172 76.596 31.6244 75.5304 33.0596C74.4632 34.4637 73.349 35.9005 72.1502 37.2717C67.3079 42.944 66.457 39.6399 68.8969 34.3607L69.5034 34.6462C65.7753 40.1126 61.1022 44.1843 64.332 34.0565C64.2944 34.3186 64.915 34.3326 64.8303 34.2484C64.5953 34.9223 58.2815 43.2202 59.391 39.1063C60.2396 37.5535 60.9764 35.9426 61.5959 34.2858C59.2452 35.6899 57.7173 38.1656 55.7193 40.0049C54.7273 39.7007 55.4607 39.5042 55.2492 39.5369C56.1744 37.9408 57.0018 36.2904 57.7267 34.5947C56.0155 36.0315 53.8482 38.5728 52.2028 40.5665C51.9771 40.3934 52.6729 41.0018 51.6057 40.2623C52.781 38.5026 54.3512 36.551 54.8966 34.6462C52.4707 36.0502 50.9193 39.2467 48.6298 41.1235C45.8561 42.7615 47.6237 38.0767 48.1597 36.9394C48.4982 36.2749 50.0402 32.3389 50.6842 34.3045C49.5512 37.1126 47.2194 39.5088 44.9957 41.5587C42.6733 42.345 47.3464 36.1438 46.5189 34.8989C45.1932 34.2531 37.2716 43.7443 38.4234 40.1921C44.3187 30.8693 50.5949 21.7805 56.9369 12.7526C58.1028 13.3563 57.2143 13.024 57.4776 13.1457C53.5755 19.169 50.1906 25.4778 45.6868 31.1314C43.8345 34.2765 30.4406 46.7771 36.7309 35.5167C36.7309 35.3576 36.7309 35.7039 36.9378 35.6056C36.1997 37.0284 32.2647 42.5416 30.5582 39.3872C29.4064 37.2811 34.888 32.3155 36.8861 35.5494L36.8673 35.5682Z" fill="white"/>
</svg>
