<svg width="225" height="2721" viewBox="0 0 225 2721" fill="none" xmlns="http://www.w3.org/2000/svg">
<g filter="url(#filter0_d_3_49)">
<mask id="path-1-outside-1_3_49" maskUnits="userSpaceOnUse" x="0.400391" y="0.0996094" width="224" height="2692" fill="black">
<rect fill="white" x="0.400391" y="0.0996094" width="224" height="2692"/>
<path d="M195.001 112.803C195.001 100.002 192.201 88.502 186.601 78.3017C181.201 68.3014 173.901 59.8012 164.701 52.801C155.501 45.8008 144.9 40.4007 132.9 36.6005C121.101 33.0004 108.901 31.2004 96.3005 31.2004C86.7005 31.2004 77.7005 32.5004 69.3005 35.1005C60.9005 37.7006 53.5005 41.5007 47.1005 46.5008C40.9005 51.701 36.0005 58.1011 32.4005 65.7013C28.8005 73.3015 27.0005 82.1018 27.0005 92.102C27.0005 104.902 29.7005 116.303 35.1005 126.303C40.7005 136.503 48.1005 145.103 57.3005 152.104C66.5005 159.104 77.0005 164.404 88.8005 168.004C100.801 171.804 113.101 173.704 125.701 173.704C135.301 173.704 144.301 172.404 152.701 169.804C161.1 167.204 168.401 163.304 174.601 158.104C181.001 153.104 186.001 146.804 189.601 139.203C193.201 131.603 195.001 122.803 195.001 112.803ZM2.4005 89.702C2.4005 75.5016 4.8005 63.0013 9.6005 52.201C14.4005 41.4007 20.9005 32.2004 29.1005 24.6002C37.3005 17.2 47.0005 11.5999 58.2005 7.79976C69.4005 3.99966 81.5005 2.09961 94.5005 2.09961C110.501 2.09961 126.001 4.59968 141.001 9.59982C156.001 14.8 169.301 22.2002 180.9 31.8004C192.701 41.4007 202.101 53.201 209.101 67.2014C216.101 81.2018 219.601 97.2022 219.601 115.203C219.601 129.203 217.201 141.603 212.4 152.404C207.6 163.404 201.1 172.604 192.9 180.004C184.701 187.605 174.9 193.305 163.501 197.105C152.301 200.905 140.301 202.805 127.501 202.805C111.501 202.805 96.0005 200.205 81.0005 195.005C66.0005 190.005 52.6005 182.705 40.8005 173.104C29.2005 163.504 19.9005 151.704 12.9005 137.703C5.9005 123.703 2.4005 107.702 2.4005 89.702ZM4.50049 414.995C4.50049 403.795 7.10049 395.295 12.3005 389.494C17.5005 383.894 25.8005 381.094 37.2005 381.094H43.8005C31.2005 372.894 21.1005 363.394 13.5005 352.593C6.10049 341.793 2.40049 328.993 2.40049 314.192C2.40049 306.592 3.60049 299.392 6.00049 292.592C8.60049 285.792 12.3005 279.792 17.1005 274.591C22.1005 269.591 28.2005 265.591 35.4005 262.591C42.6005 259.591 50.9005 258.091 60.3005 258.091C64.9005 258.091 69.1005 258.291 72.9005 258.691C76.9005 259.091 81.3005 259.691 86.1005 260.491L216.001 282.692V311.192L79.8005 288.092C76.2005 287.492 73.1005 287.092 70.5005 286.892C68.1005 286.692 65.4005 286.592 62.4005 286.592C51.6005 286.592 43.0005 289.792 36.6005 296.192C30.4005 302.592 27.3005 311.292 27.3005 322.293C27.3005 329.093 28.9005 335.993 32.1005 342.993C35.3005 349.993 39.9005 356.494 45.9005 362.494C52.1005 368.494 59.7005 373.694 68.7005 378.094C77.7005 382.694 88.0005 385.994 99.6005 387.994L216.001 408.695V437.196L49.8005 407.795C48.8005 407.595 47.6005 407.395 46.2005 407.195C45.0005 407.195 43.7005 407.195 42.3005 407.195C36.9005 407.195 33.0005 408.695 30.6005 411.695C28.2005 414.895 27.0005 419.295 27.0005 424.895L4.50049 414.995ZM216.001 501.297L216 658.801L190.8 654.301V589.799L6.00048 557.398L6.00048 528.897L190.8 561.298V496.797L216.001 501.297ZM216 719.316V747.817L31.5005 715.416L31.5005 811.718L6.00047 807.218L6.00047 682.415L216 719.316ZM17.1005 844.349L216 959.552V991.653L9.30046 1037.55L3.00046 1010.25L63.0005 997.653L63.0005 900.45L3.60047 867.15L17.1005 844.349ZM87.0005 913.951V992.553L188.1 971.252L87.0005 913.951ZM215.1 1094.27L218.1 1123.67L36.3005 1139.87L194.1 1213.07V1248.77L36.3004 1265.57L217.2 1345.68L205.5 1370.88L6.00045 1278.47L6.00045 1243.07L163.8 1225.97L6.00045 1152.47L6.00045 1117.07L215.1 1094.27ZM213.6 1549.75C215.4 1557.95 216.8 1566.15 217.8 1574.35C219 1582.55 219.6 1592.65 219.6 1604.65C219.6 1620.45 217 1634.05 211.8 1645.45C206.8 1656.85 200 1666.15 191.4 1673.35C182.8 1680.55 172.9 1685.85 161.7 1689.25C150.7 1692.65 139.1 1694.35 126.9 1694.35C108.9 1694.35 92.2004 1691.55 76.8004 1685.95C61.6004 1680.55 48.5004 1672.75 37.5004 1662.55C26.5004 1652.35 17.9004 1639.95 11.7004 1625.35C5.50043 1610.75 2.40043 1594.35 2.40043 1576.15C2.40044 1563.35 3.30044 1551.95 5.10044 1541.95C6.70044 1531.94 9.00044 1522.84 12.0004 1514.64L213.6 1549.75ZM195.6 1602.25C195.6 1597.05 195.3 1592.15 194.7 1587.55C194.3 1582.95 193.6 1578.65 192.6 1574.65L30.9004 1546.45C29.7004 1551.05 28.7004 1555.95 27.9004 1561.15C27.3004 1566.35 27.0004 1571.95 27.0004 1577.95C27.0004 1590.95 29.3004 1602.75 33.9004 1613.35C38.7004 1624.15 45.4004 1633.35 54.0004 1640.95C62.6004 1648.55 72.9004 1654.45 84.9004 1658.65C96.9004 1662.85 110.1 1664.95 124.5 1664.95C133.9 1664.95 142.9 1663.65 151.5 1661.05C160.1 1658.65 167.6 1654.85 174 1649.65C180.6 1644.65 185.8 1638.15 189.6 1630.15C193.6 1622.35 195.6 1613.05 195.6 1602.25ZM195 1855.78C195 1842.98 192.2 1831.48 186.6 1821.28C181.2 1811.28 173.9 1802.78 164.7 1795.78C155.5 1788.78 144.9 1783.38 132.9 1779.58C121.1 1775.98 108.9 1774.18 96.3004 1774.18C86.7004 1774.18 77.7004 1775.48 69.3004 1778.08C60.9004 1780.68 53.5004 1784.48 47.1004 1789.48C40.9004 1794.68 36.0004 1801.08 32.4004 1808.68C28.8004 1816.28 27.0004 1825.08 27.0004 1835.08C27.0004 1847.88 29.7004 1859.28 35.1004 1869.28C40.7004 1879.48 48.1004 1888.08 57.3004 1895.08C66.5004 1902.08 77.0004 1907.38 88.8004 1910.98C100.8 1914.78 113.1 1916.68 125.7 1916.68C135.3 1916.68 144.3 1915.38 152.7 1912.78C161.1 1910.18 168.4 1906.28 174.6 1901.08C181 1896.08 186 1889.78 189.6 1882.18C193.2 1874.58 195 1865.78 195 1855.78ZM2.40042 1832.68C2.40042 1818.48 4.80042 1805.98 9.60043 1795.18C14.4004 1784.38 20.9004 1775.18 29.1004 1767.58C37.3004 1760.18 47.0004 1754.58 58.2004 1750.78C69.4004 1746.98 81.5004 1745.08 94.5004 1745.08C110.5 1745.08 126 1747.58 141 1752.58C156 1757.78 169.3 1765.18 180.9 1774.78C192.7 1784.38 202.1 1796.18 209.1 1810.18C216.1 1824.18 219.6 1840.18 219.6 1858.18C219.6 1872.18 217.2 1884.58 212.4 1895.38C207.6 1906.38 201.1 1915.58 192.9 1922.98C184.7 1930.58 174.9 1936.28 163.5 1940.08C152.3 1943.88 140.3 1945.78 127.5 1945.78C111.5 1945.78 96.0004 1943.18 81.0004 1937.98C66.0004 1932.98 52.6004 1925.68 40.8004 1916.08C29.2004 1906.48 19.9004 1894.68 12.9004 1880.68C5.90042 1866.68 2.40042 1850.68 2.40042 1832.68ZM156.3 1998.97V2026.57L205.5 2040.97V2061.67L156.3 2052.97V2096.17L132.9 2092.27V2048.77L60.0004 2036.17C56.0004 2035.37 52.2004 2034.97 48.6004 2034.97C41.6004 2034.97 36.1004 2036.97 32.1004 2040.97C28.3004 2045.17 26.4004 2050.77 26.4004 2057.77C26.4004 2063.57 27.2004 2068.37 28.8004 2072.17C30.6004 2076.17 32.4004 2079.87 34.2004 2083.27L10.8004 2086.57C8.60041 2082.77 6.70041 2077.97 5.10041 2072.17C3.30041 2066.57 2.40041 2060.27 2.40041 2053.27C2.40041 2047.67 3.30041 2042.17 5.10041 2036.77C6.70042 2031.37 9.20042 2026.57 12.6004 2022.37C16.2004 2018.17 20.8004 2014.77 26.4004 2012.17C32.0004 2009.57 38.7004 2008.27 46.5004 2008.27C48.7004 2008.27 50.9004 2008.37 53.1004 2008.57C55.5004 2008.77 58.2004 2009.07 61.2004 2009.47L132.9 2021.77V1995.07L156.3 1998.97ZM194.7 2624.1C194.7 2612.7 192.1 2602.1 186.9 2592.3C181.9 2582.7 174.8 2574.3 165.6 2567.1C156.6 2560.1 145.7 2554.6 132.9 2550.6C120.1 2546.6 106.1 2544.6 90.9004 2544.6C81.5004 2544.6 72.9004 2545.7 65.1004 2547.9C57.3004 2550.3 50.6004 2553.6 45.0004 2557.8C39.4004 2562.2 35.0004 2567.5 31.8004 2573.7C28.8004 2580.1 27.3004 2587.3 27.3004 2595.3C27.3004 2602.1 28.6004 2608.6 31.2004 2614.8C34.0004 2621 37.7004 2626.6 42.3004 2631.6C47.1004 2636.6 52.7004 2640.8 59.1004 2644.2C65.5004 2647.6 72.5004 2650 80.1004 2651.4L94.8004 2654.1V2610.3L117.3 2614.2L117.3 2684.7L49.8004 2673C48.8004 2672.8 47.6004 2672.6 46.2004 2672.4C45.0004 2672.4 43.7004 2672.4 42.3004 2672.4C36.9004 2672.4 33.0004 2673.9 30.6004 2676.9C28.2004 2680.1 27.0004 2684.5 27.0004 2690.1L4.50039 2680.2C4.50039 2658.2 15.2004 2647.2 36.6004 2647.2C27.0004 2641 18.9004 2633 12.3004 2623.2C5.70039 2613.4 2.40039 2601.5 2.40039 2587.5C2.40039 2577.1 4.30039 2567.5 8.10039 2558.7C11.9004 2549.9 17.4004 2542.2 24.6004 2535.6C32.0004 2529.2 40.9004 2524.2 51.3004 2520.59C61.9004 2516.99 73.8004 2515.2 87.0004 2515.2C106 2515.2 123.6 2517.9 139.8 2523.3C156 2528.7 170 2536.2 181.8 2545.8C193.6 2555.6 202.8 2567.3 209.4 2580.9C216.2 2594.5 219.6 2609.4 219.6 2625.6C219.6 2638.4 217.8 2649.6 214.2 2659.2C210.8 2669 206.4 2678.1 201 2686.5L178.2 2671.5C183.2 2664.3 187.2 2657 190.2 2649.6C193.2 2642.4 194.7 2633.9 194.7 2624.1Z"/>
<path d="M186.9 2592.3C192.1 2602.1 194.7 2612.7 194.7 2624.1C194.7 2633.9 193.2 2642.4 190.2 2649.6C187.2 2657 183.2 2664.3 178.2 2671.5L201 2686.5C206.4 2678.1 210.8 2669 214.2 2659.2C217.8 2649.6 219.6 2638.4 219.6 2625.6C219.6 2609.4 216.2 2594.5 209.4 2580.9C202.8 2567.3 193.6 2555.6 181.8 2545.8C170 2536.2 156 2528.7 139.8 2523.3C123.6 2517.9 106 2515.2 87.0004 2515.2C73.8004 2515.2 61.9004 2516.99 51.3004 2520.59C40.9004 2524.2 32.0004 2529.2 24.6004 2535.6C17.4004 2542.2 11.9004 2549.9 8.10039 2558.7C4.30039 2567.5 2.40039 2577.1 2.40039 2587.5C2.40039 2601.5 5.70039 2613.4 12.3004 2623.2C18.9004 2633 27.0004 2641 36.6004 2647.2C15.2004 2647.2 4.50039 2658.2 4.50039 2680.2L27.0004 2690.1C27.0004 2684.5 28.2004 2680.1 30.6004 2676.9C33.0004 2673.9 36.9004 2672.4 42.3004 2672.4H46.2004C47.6004 2672.6 48.8004 2672.8 49.8004 2673L117.3 2684.7L117.3 2614.2L94.8004 2610.3V2654.1L80.1004 2651.4C72.5004 2650 65.5004 2647.6 59.1004 2644.2C52.7004 2640.8 47.1004 2636.6 42.3004 2631.6C37.7004 2626.6 34.0004 2621 31.2004 2614.8C28.6004 2608.6 27.3004 2602.1 27.3004 2595.3C27.3004 2587.3 28.8004 2580.1 31.8004 2573.7C35.0004 2567.5 39.4004 2562.2 45.0004 2557.8C50.6004 2553.6 57.3004 2550.3 65.1004 2547.9C72.9004 2545.7 81.5004 2544.6 90.9004 2544.6C106.1 2544.6 120.1 2546.6 132.9 2550.6C145.7 2554.6 156.6 2560.1 165.6 2567.1C174.8 2574.3 181.9 2582.7 186.9 2592.3Z"/>
</mask>
<path d="M194.7 2624.1H193.7H194.7ZM186.9 2592.3L186.013 2592.76L186.017 2592.77L186.9 2592.3ZM165.6 2567.1L166.217 2566.31L166.214 2566.31L165.6 2567.1ZM132.9 2550.6L132.602 2551.55L132.9 2550.6ZM90.9004 2544.6V2543.6V2544.6ZM65.1004 2547.9L64.8289 2546.93L64.8176 2546.94L64.8063 2546.94L65.1004 2547.9ZM45.0004 2557.8L44.4004 2557L44.3914 2557L44.3826 2557.01L45.0004 2557.8ZM31.8004 2573.7L30.9118 2573.24L30.903 2573.25L30.8949 2573.27L31.8004 2573.7ZM31.2004 2614.8L30.2782 2615.18L30.2834 2615.2L30.289 2615.21L31.2004 2614.8ZM42.3004 2631.6L41.5645 2632.28L41.5716 2632.28L41.579 2632.29L42.3004 2631.6ZM59.1004 2644.2L58.6312 2645.08L59.1004 2644.2ZM80.1004 2651.4L79.9192 2652.38H79.9197L80.1004 2651.4ZM94.8004 2654.1L94.6197 2655.08L95.8004 2655.3V2654.1H94.8004ZM94.8004 2610.3L94.9712 2609.31L93.8004 2609.11V2610.3H94.8004ZM117.3 2614.2H118.3V2613.36L117.471 2613.21L117.3 2614.2ZM117.3 2684.7L117.13 2685.68L118.3 2685.89V2684.7H117.3ZM49.8004 2673L49.6043 2673.98L49.6169 2673.98L49.6296 2673.98L49.8004 2673ZM30.6004 2676.9L29.8195 2676.27L29.8098 2676.29L29.8004 2676.3L30.6004 2676.9ZM27.0004 2690.1L26.5976 2691.01L28.0004 2691.63V2690.1H27.0004ZM4.50039 2680.2H3.50039V2680.85L4.09764 2681.11L4.50039 2680.2ZM36.6004 2647.2V2648.2H39.9919L37.1429 2646.36L36.6004 2647.2ZM12.3004 2623.2L13.1298 2622.64L12.3004 2623.2ZM2.40039 2587.5H1.40039H2.40039ZM8.10039 2558.7L7.18233 2558.3H7.18233L8.10039 2558.7ZM24.6004 2535.6L23.9462 2534.84L23.9353 2534.85L23.9247 2534.86L24.6004 2535.6ZM51.3004 2520.59L50.9788 2519.65L50.9733 2519.65L51.3004 2520.59ZM87.0004 2515.2V2514.2V2515.2ZM139.8 2523.3L140.117 2522.35L139.8 2523.3ZM181.8 2545.8L182.439 2545.03L182.432 2545.02L181.8 2545.8ZM209.4 2580.9L208.501 2581.33L208.506 2581.34L209.4 2580.9ZM214.2 2659.2L213.264 2658.85L213.26 2658.86L213.256 2658.87L214.2 2659.2ZM201 2686.5L200.451 2687.33L201.295 2687.89L201.842 2687.04L201 2686.5ZM178.2 2671.5L177.379 2670.93L176.794 2671.77L177.651 2672.33L178.2 2671.5ZM190.2 2649.6L189.277 2649.21L189.274 2649.22L190.2 2649.6ZM198.601 2380.56H197.601H198.601ZM190.201 2346.06L189.321 2346.54L189.324 2346.54L190.201 2346.06ZM168.301 2320.56L168.906 2319.77L168.301 2320.56ZM136.5 2304.36L136.802 2303.41L136.792 2303.41L136.5 2304.36ZM99.9005 2298.96V2299.96V2298.96ZM72.9005 2302.86L72.6048 2301.91L72.9005 2302.86ZM50.7005 2314.26L50.0848 2313.47L50.0712 2313.49L50.0579 2313.5L50.7005 2314.26ZM36.0005 2333.46L35.0968 2333.03L36.0005 2333.46ZM30.6005 2359.86H29.6005H30.6005ZM38.7005 2394.06L37.8206 2394.54L37.8239 2394.55L38.7005 2394.06ZM60.9005 2419.87L60.295 2420.66L60.9005 2419.87ZM92.4005 2435.77L92.7024 2434.81L92.6923 2434.81L92.4005 2435.77ZM129.3 2441.47V2440.47V2441.47ZM156.3 2437.57L156.005 2436.61L156.3 2437.57ZM178.201 2425.87L177.585 2425.08L177.571 2425.09L177.558 2425.1L178.201 2425.87ZM193.201 2406.97L192.297 2406.54L193.201 2406.97ZM6.00049 2357.46H5.00049H6.00049ZM13.2005 2319.96L14.1143 2320.37L13.2005 2319.96ZM32.7005 2292.36L32.0305 2291.62L32.0207 2291.63L32.7005 2292.36ZM61.8005 2275.56L61.4792 2274.61L61.8005 2275.56ZM98.1005 2269.86V2268.86V2269.86ZM144.6 2277.36L144.928 2276.42L144.917 2276.41L144.6 2277.36ZM184.5 2299.56L183.863 2300.33L183.869 2300.34L184.5 2299.56ZM212.701 2334.96L213.595 2334.52H213.595L212.701 2334.96ZM223.201 2382.96H222.201H223.201ZM216 2420.17L215.087 2419.76L215.084 2419.77L216 2420.17ZM196.5 2447.77L195.83 2447.02L195.821 2447.03L196.5 2447.77ZM167.1 2464.87L166.784 2463.92L166.779 2463.92L167.1 2464.87ZM131.1 2470.57V2471.57V2470.57ZM84.6005 2462.77L84.9281 2461.82L84.9167 2461.82L84.6005 2462.77ZM44.4005 2440.87L43.7629 2441.64L43.7694 2441.64L44.4005 2440.87ZM16.5005 2405.46L17.3949 2405.02L16.5005 2405.46ZM195.7 2624.1C195.7 2612.54 193.063 2601.78 187.784 2591.83L186.017 2592.77C191.138 2602.42 193.7 2612.86 193.7 2624.1H195.7ZM187.787 2591.84C182.716 2582.1 175.52 2573.59 166.217 2566.31L164.984 2567.88C174.081 2575 181.085 2583.3 186.013 2592.76L187.787 2591.84ZM166.214 2566.31C157.105 2559.22 146.093 2553.67 133.199 2549.64L132.602 2551.55C145.308 2555.52 156.096 2560.97 164.986 2567.89L166.214 2566.31ZM133.199 2549.64C120.29 2545.61 106.188 2543.6 90.9004 2543.6V2545.6C106.013 2545.6 119.911 2547.58 132.602 2551.55L133.199 2549.64ZM90.9004 2543.6C81.4229 2543.6 72.73 2544.7 64.8289 2546.93L65.3719 2548.86C73.0708 2546.69 81.5779 2545.6 90.9004 2545.6V2543.6ZM64.8063 2546.94C56.914 2549.37 50.1065 2552.72 44.4004 2557L45.6004 2558.6C51.0943 2554.48 57.6868 2551.22 65.3945 2548.85L64.8063 2546.94ZM44.3826 2557.01C38.6723 2561.5 34.1789 2566.91 30.9118 2573.24L32.689 2574.16C35.8219 2568.08 40.1285 2562.9 45.6182 2558.58L44.3826 2557.01ZM30.8949 2573.27C27.8249 2579.82 26.3004 2587.17 26.3004 2595.3H28.3004C28.3004 2587.42 29.7759 2580.37 32.7059 2574.12L30.8949 2573.27ZM26.3004 2595.3C26.3004 2602.23 27.6262 2608.86 30.2782 2615.18L32.1226 2614.41C29.5745 2608.33 28.3004 2601.97 28.3004 2595.3H26.3004ZM30.289 2615.21C33.1329 2621.51 36.8921 2627.2 41.5645 2632.28L43.0363 2630.92C38.5087 2626 34.8679 2620.49 32.1118 2614.39L30.289 2615.21ZM41.579 2632.29C46.4557 2637.37 52.1419 2641.63 58.6312 2645.08L59.5696 2643.32C53.2589 2639.96 47.7451 2635.83 43.0218 2630.91L41.579 2632.29ZM58.6312 2645.08C65.1273 2648.53 72.2253 2650.96 79.9192 2652.38L80.2816 2650.42C72.7754 2649.03 65.8734 2646.66 59.5696 2643.32L58.6312 2645.08ZM79.9197 2652.38L94.6197 2655.08L94.981 2653.11L80.281 2650.42L79.9197 2652.38ZM95.8004 2654.1V2610.3H93.8004V2654.1H95.8004ZM94.6296 2611.28L117.13 2615.18L117.471 2613.21L94.9712 2609.31L94.6296 2611.28ZM116.3 2614.2L116.3 2684.7H118.3L118.3 2614.2H116.3ZM117.471 2683.71L49.9712 2672.01L49.6296 2673.98L117.13 2685.68L117.471 2683.71ZM49.9965 2672.02C48.973 2671.81 47.7538 2671.61 46.3418 2671.41L46.059 2673.39C47.447 2673.59 48.6278 2673.78 49.6043 2673.98L49.9965 2672.02ZM42.3004 2671.4C36.7261 2671.4 32.4776 2672.95 29.8195 2676.27L31.3813 2677.52C33.5231 2674.85 37.0746 2673.4 42.3004 2673.4V2671.4ZM29.8004 2676.3C27.2277 2679.73 26.0004 2684.37 26.0004 2690.1H28.0004C28.0004 2684.63 29.1731 2680.47 31.4004 2677.5L29.8004 2676.3ZM27.4031 2689.18L4.90313 2679.28L4.09764 2681.11L26.5976 2691.01L27.4031 2689.18ZM5.50039 2680.2C5.50039 2669.35 8.13977 2661.39 13.2422 2656.15C18.3397 2650.91 26.0617 2648.2 36.6004 2648.2V2646.2C25.7391 2646.2 17.4111 2648.99 11.8086 2654.75C6.211 2660.51 3.50039 2669.05 3.50039 2680.2H5.50039ZM37.1429 2646.36C27.6605 2640.23 19.6568 2632.33 13.1298 2622.64L11.4709 2623.76C18.1439 2633.67 26.3403 2641.76 36.0579 2648.04L37.1429 2646.36ZM13.1298 2622.64C6.66027 2613.03 3.40039 2601.34 3.40039 2587.5H1.40039C1.40039 2601.66 4.74051 2613.76 11.4709 2623.76L13.1298 2622.64ZM3.40039 2587.5C3.40039 2577.22 5.27696 2567.76 9.01846 2559.09L7.18233 2558.3C3.32382 2567.24 1.40039 2576.97 1.40039 2587.5H3.40039ZM9.01846 2559.09C12.7615 2550.42 18.178 2542.84 25.2761 2536.33L23.9247 2534.86C16.6228 2541.55 11.0393 2549.37 7.18233 2558.3L9.01846 2559.09ZM25.2546 2536.35C32.5472 2530.04 41.3326 2525.1 51.6275 2521.54L50.9733 2519.65C40.4682 2523.29 31.4535 2528.35 23.9462 2534.84L25.2546 2536.35ZM51.622 2521.54C62.1018 2517.98 73.8907 2516.2 87.0004 2516.2V2514.2C73.7101 2514.2 61.699 2516.01 50.9788 2519.65L51.622 2521.54ZM87.0004 2516.2C105.905 2516.2 123.397 2518.88 139.484 2524.24L140.117 2522.35C123.804 2516.91 106.096 2514.2 87.0004 2514.2V2516.2ZM139.484 2524.24C155.584 2529.61 169.474 2537.06 181.169 2546.57L182.432 2545.02C170.527 2535.33 156.417 2527.78 140.117 2522.35L139.484 2524.24ZM181.161 2546.57C192.854 2556.28 201.964 2567.86 208.501 2581.33L210.3 2580.46C203.637 2566.73 194.347 2554.92 182.439 2545.03L181.161 2546.57ZM208.506 2581.34C215.232 2594.8 218.6 2609.54 218.6 2625.6H220.6C220.6 2609.25 217.169 2594.2 210.295 2580.45L208.506 2581.34ZM218.6 2625.6C218.6 2638.31 216.813 2649.38 213.264 2658.85L215.137 2659.55C218.788 2649.81 220.6 2638.49 220.6 2625.6H218.6ZM213.256 2658.87C209.881 2668.6 205.515 2677.63 200.159 2685.96L201.842 2687.04C207.286 2678.57 211.72 2669.4 215.145 2659.53L213.256 2658.87ZM201.55 2685.66L178.75 2670.66L177.651 2672.33L200.451 2687.33L201.55 2685.66ZM179.022 2672.07C184.06 2664.81 188.097 2657.45 191.127 2649.97L189.274 2649.22C186.304 2656.55 182.341 2663.78 177.379 2670.93L179.022 2672.07ZM191.123 2649.98C194.185 2642.63 195.7 2634 195.7 2624.1H193.7C193.7 2633.8 192.215 2642.16 189.277 2649.21L191.123 2649.98ZM199.601 2380.56C199.601 2367.61 196.766 2355.94 191.077 2345.58L189.324 2346.54C194.835 2356.58 197.601 2367.92 197.601 2380.56H199.601ZM191.08 2345.59C185.612 2335.46 178.217 2326.85 168.906 2319.77L167.695 2321.36C176.784 2328.27 183.989 2336.67 189.321 2346.54L191.08 2345.59ZM168.906 2319.77C159.607 2312.69 148.902 2307.24 136.802 2303.41L136.199 2305.32C148.099 2309.08 158.594 2314.43 167.695 2321.36L168.906 2319.77ZM136.792 2303.41C124.896 2299.78 112.597 2297.96 99.9005 2297.96V2299.96C112.404 2299.96 124.505 2301.75 136.209 2305.32L136.792 2303.41ZM99.9005 2297.96C90.2094 2297.96 81.1089 2299.27 72.6048 2301.91L73.1962 2303.82C81.4921 2301.25 90.3916 2299.96 99.9005 2299.96V2297.96ZM72.6048 2301.91C64.0985 2304.54 56.5881 2308.39 50.0848 2313.47L51.3162 2315.05C57.6129 2310.13 64.9025 2306.38 73.1962 2303.82L72.6048 2301.91ZM50.0579 2313.5C43.7431 2318.79 38.7559 2325.31 35.0968 2333.03L36.9042 2333.89C40.445 2326.42 45.2578 2320.13 51.3431 2315.03L50.0579 2313.5ZM35.0968 2333.03C31.4225 2340.79 29.6005 2349.74 29.6005 2359.86H31.6005C31.6005 2349.98 33.3785 2341.33 36.9042 2333.89L35.0968 2333.03ZM29.6005 2359.86C29.6005 2372.81 32.3322 2384.38 37.8206 2394.54L39.5804 2393.59C34.2687 2383.75 31.6005 2372.52 31.6005 2359.86H29.6005ZM37.8239 2394.55C43.4908 2404.87 50.9828 2413.58 60.295 2420.66L61.506 2419.07C52.4181 2412.15 45.1102 2403.66 39.5771 2393.58L37.8239 2394.55ZM60.295 2420.66C69.5954 2427.74 80.2031 2433.09 92.1087 2436.72L92.6923 2434.81C80.9979 2431.24 70.6056 2425.99 61.506 2419.07L60.295 2420.66ZM92.0986 2436.72C104.196 2440.55 116.598 2442.47 129.3 2442.47V2440.47C116.803 2440.47 104.605 2438.58 92.7024 2434.81L92.0986 2436.72ZM129.3 2442.47C138.992 2442.47 148.092 2441.15 156.596 2438.52L156.005 2436.61C147.709 2439.18 138.809 2440.47 129.3 2440.47V2442.47ZM156.596 2438.52C165.112 2435.89 172.533 2431.92 178.843 2426.63L177.558 2425.1C171.468 2430.21 164.289 2434.05 156.005 2436.61L156.596 2438.52ZM178.816 2426.65C185.343 2421.55 190.44 2415.13 194.104 2407.39L192.297 2406.54C188.761 2414 183.858 2420.18 177.585 2425.08L178.816 2426.65ZM194.104 2407.39C197.779 2399.64 199.601 2390.69 199.601 2380.56H197.601C197.601 2390.44 195.823 2399.09 192.297 2406.54L194.104 2407.39ZM7.00049 2357.46C7.00049 2343.38 9.38139 2331.02 14.1143 2320.37L12.2867 2319.56C7.4196 2330.51 5.00049 2343.15 5.00049 2357.46H7.00049ZM14.1143 2320.37C18.8625 2309.69 25.2853 2300.6 33.3803 2293.1L32.0207 2291.63C23.7157 2299.33 17.1385 2308.64 12.2867 2319.56L14.1143 2320.37ZM33.3705 2293.1C41.4624 2285.8 51.0415 2280.27 62.1218 2276.51L61.4792 2274.61C50.1595 2278.46 40.3386 2284.12 32.0305 2291.62L33.3705 2293.1ZM62.1218 2276.51C73.2086 2272.75 85.199 2270.86 98.1005 2270.86V2268.86C85.002 2268.86 72.7924 2270.78 61.4792 2274.61L62.1218 2276.51ZM98.1005 2270.86C113.994 2270.86 129.387 2273.34 144.284 2278.31L144.917 2276.41C129.814 2271.38 114.207 2268.86 98.1005 2268.86V2270.86ZM144.273 2278.31C159.166 2283.47 172.36 2290.81 183.863 2300.33L185.138 2298.79C173.441 2289.11 160.035 2281.65 144.928 2276.42L144.273 2278.31ZM183.869 2300.34C195.556 2309.85 204.868 2321.53 211.806 2335.41L213.595 2334.52C206.533 2320.39 197.045 2308.48 185.132 2298.79L183.869 2300.34ZM211.806 2335.41C218.727 2349.25 222.201 2365.1 222.201 2382.96H224.201C224.201 2364.83 220.674 2348.67 213.595 2334.52L211.806 2335.41ZM222.201 2382.96C222.201 2396.85 219.82 2409.11 215.087 2419.76L216.914 2420.57C221.781 2409.62 224.201 2397.08 224.201 2382.96H222.201ZM215.084 2419.77C210.336 2430.65 203.916 2439.73 195.831 2447.02L197.17 2448.51C205.485 2441.01 212.065 2431.68 216.917 2420.57L215.084 2419.77ZM195.821 2447.03C187.733 2454.53 178.059 2460.16 166.784 2463.92L167.417 2465.82C178.942 2461.97 188.868 2456.2 197.18 2448.5L195.821 2447.03ZM166.779 2463.92C155.691 2467.68 143.8 2469.57 131.1 2469.57V2471.57C144.001 2471.57 156.11 2469.65 167.422 2465.81L166.779 2463.92ZM131.1 2469.57C115.211 2469.57 99.8219 2466.99 84.928 2461.82L84.2729 2463.71C99.3791 2468.95 114.99 2471.57 131.1 2471.57V2469.57ZM84.9167 2461.82C70.0267 2456.85 56.7343 2449.61 45.0316 2440.09L43.7694 2441.64C55.6667 2451.32 69.1743 2458.68 84.2842 2463.72L84.9167 2461.82ZM45.0381 2440.1C33.5495 2430.59 24.3352 2418.9 17.3949 2405.02L15.6061 2405.91C22.6657 2420.03 32.0515 2431.94 43.7629 2441.64L45.0381 2440.1ZM17.3949 2405.02C10.4741 2391.18 7.00049 2375.33 7.00049 2357.46H5.00049C5.00049 2375.6 8.5269 2391.75 15.6061 2405.91L17.3949 2405.02ZM195.001 112.803H193.001H195.001ZM186.601 78.3017L184.841 79.252L184.847 79.2642L186.601 78.3017ZM164.701 52.801L165.912 51.2093L164.701 52.801ZM132.9 36.6005L133.504 34.6939L133.494 34.6907L133.484 34.6876L132.9 36.6005ZM69.3005 35.1005L68.7091 33.1899L69.3005 35.1005ZM47.1005 46.5008L45.8692 44.9248L45.8419 44.9461L45.8153 44.9684L47.1005 46.5008ZM32.4005 65.7013L30.593 64.8452H30.593L32.4005 65.7013ZM27.0005 92.102H25.0005H27.0005ZM35.1005 126.303L33.3406 127.253L33.3473 127.265L35.1005 126.303ZM57.3005 152.104L56.0894 153.695L57.3005 152.104ZM88.8005 168.004L89.4043 166.097L89.3942 166.094L89.3841 166.091L88.8005 168.004ZM125.701 173.704V171.704V173.704ZM152.701 169.804L152.109 167.894L152.701 169.804ZM174.601 158.104L173.369 156.528L173.342 156.549L173.315 156.571L174.601 158.104ZM189.601 139.203L187.793 138.347L189.601 139.203ZM2.4005 89.702H0.4005H2.4005ZM9.6005 52.201L11.4281 53.0132L9.6005 52.201ZM29.1005 24.6002L27.7606 23.1154L27.7507 23.1243L27.741 23.1334L29.1005 24.6002ZM58.2005 7.79976L57.5579 5.90581L58.2005 7.79976ZM94.5005 2.09961V0.0996094V2.09961ZM141.001 9.59982L141.656 7.71015L141.644 7.70623L141.633 7.70245L141.001 9.59982ZM180.9 31.8004L179.625 33.3412L179.632 33.3465L179.638 33.3518L180.9 31.8004ZM209.101 67.2014L210.889 66.307L209.101 67.2014ZM219.601 115.203H217.601H219.601ZM212.4 152.404L210.573 151.591L210.567 151.604L212.4 152.404ZM192.9 180.004L191.561 178.52L191.551 178.529L191.541 178.538L192.9 180.004ZM163.501 197.105L162.868 195.208L162.858 195.211L163.501 197.105ZM127.501 202.805V204.805V202.805ZM81.0005 195.005L81.6556 193.115L81.6443 193.111L81.633 193.107L81.0005 195.005ZM40.8005 173.104L39.5253 174.645L39.5318 174.65L39.5383 174.656L40.8005 173.104ZM12.9005 137.703L14.6894 136.809L12.9005 137.703ZM4.50049 414.995H2.50049L2.50049 416.3L3.69499 416.826L4.50049 414.995ZM12.3005 389.494L10.8349 388.134L10.823 388.146L10.8113 388.159L12.3005 389.494ZM37.2005 381.094V383.094V381.094ZM43.8005 381.094V383.094H50.5402L44.8914 379.418L43.8005 381.094ZM13.5005 352.593L11.8506 353.724L11.8577 353.734L11.8649 353.744L13.5005 352.593ZM2.40049 314.192H0.40049H2.40049ZM6.00049 292.592L4.13238 291.878L4.12313 291.902L4.1145 291.926L6.00049 292.592ZM17.1005 274.591L15.6863 273.177L15.658 273.205L15.6309 273.235L17.1005 274.591ZM35.4005 262.591L36.1697 264.437L35.4005 262.591ZM60.3005 258.091V260.091V258.091ZM72.9005 258.691L72.6911 260.68L72.7015 260.681L72.9005 258.691ZM86.1005 260.491L86.4374 258.52L86.4293 258.518L86.1005 260.491ZM216.001 282.692H218.001V281.004L216.337 280.72L216.001 282.692ZM216.001 311.192L215.666 313.164L218.001 313.56V311.192H216.001ZM79.8005 288.092L80.1349 286.12L80.1293 286.119L79.8005 288.092ZM70.5005 286.892L70.3344 288.885L70.3471 288.886L70.5005 286.892ZM62.4005 286.592V284.592V286.592ZM36.6005 296.192L35.1863 294.778L35.175 294.789L35.164 294.8L36.6005 296.192ZM27.3005 322.293H25.3005H27.3005ZM32.1005 342.993L30.2815 343.825L32.1005 342.993ZM45.9005 362.494L44.4863 363.908L44.4978 363.92L44.5096 363.931L45.9005 362.494ZM68.7005 378.094L69.6107 376.313L69.5949 376.305L69.5789 376.297L68.7005 378.094ZM99.6005 387.994L99.9507 386.025L99.9403 386.024L99.6005 387.994ZM216.001 408.695H218.001V407.019L216.351 406.726L216.001 408.695ZM216.001 437.196L215.652 439.165L218.001 439.581V437.196H216.001ZM49.8005 407.795L49.4082 409.756L49.4301 409.76L49.4521 409.764L49.8005 407.795ZM46.2005 407.195L46.4833 405.215L46.3426 405.195H46.2005V407.195ZM42.3005 407.195V405.195V407.195ZM30.6005 411.695L29.0387 410.446L29.0192 410.47L29.0005 410.495L30.6005 411.695ZM27.0005 424.895L26.195 426.726L29.0005 427.961V424.895H27.0005ZM216.001 501.297H218.001V499.622L216.352 499.328L216.001 501.297ZM216 658.801L215.649 660.77L218 661.19V658.801H216ZM190.8 654.301H188.8V655.975L190.449 656.27L190.8 654.301ZM190.8 589.799H192.8V588.119L191.146 587.829L190.8 589.799ZM6.00048 557.398H4.00048L4.00048 559.078L5.65509 559.368L6.00048 557.398ZM6.00048 528.897L6.34587 526.927L4.00048 526.516L4.00048 528.897H6.00048ZM190.8 561.298L190.455 563.268L192.8 563.68V561.298H190.8ZM190.8 496.797L191.152 494.828L188.8 494.408V496.797H190.8ZM216 719.316H218V717.637L216.347 717.346L216 719.316ZM216 747.817L215.655 749.787L218 750.199V747.817H216ZM31.5005 715.416L31.8464 713.446L29.5005 713.034V715.416H31.5005ZM31.5005 811.718L31.1529 813.688L33.5005 814.102V811.718H31.5005ZM6.00047 807.218H4.00047L4.00047 808.896L5.65289 809.188L6.00047 807.218ZM6.00047 682.415L6.34661 680.445L4.00047 680.033L4.00047 682.415H6.00047ZM17.1005 844.349L18.1029 842.618L16.3887 841.625L15.3795 843.33L17.1005 844.349ZM216 959.552H218V958.399L217.003 957.821L216 959.552ZM216 991.653L216.434 993.605L218 993.258V991.653H216ZM9.30046 1037.55L7.35167 1038L7.79768 1039.94L9.73403 1039.51L9.30046 1037.55ZM3.00046 1010.25L2.58941 1008.3L0.592977 1008.72L1.05167 1010.7L3.00046 1010.25ZM63.0005 997.653L63.4115 999.61L65.0005 999.277V997.653H63.0005ZM63.0005 900.45H65.0005V899.279L63.9785 898.706L63.0005 900.45ZM3.60047 867.15L1.8795 866.131L0.836181 867.893L2.62243 868.894L3.60047 867.15ZM87.0005 913.951L87.9866 912.211L85.0005 910.518V913.951H87.0005ZM87.0005 992.553H85.0005V995.018L87.4128 994.51L87.0005 992.553ZM188.1 971.252L188.513 973.209L193.686 972.119L189.087 969.512L188.1 971.252ZM215.1 1094.27L217.09 1094.07L216.886 1092.06L214.884 1092.28L215.1 1094.27ZM218.1 1123.67L218.278 1125.66L220.296 1125.48L220.09 1123.47L218.1 1123.67ZM36.3005 1139.87L36.1229 1137.88L28.6827 1138.54L35.4588 1141.69L36.3005 1139.87ZM194.1 1213.07H196.1V1211.8L194.942 1211.26L194.1 1213.07ZM194.1 1248.77L194.312 1250.76L196.1 1250.57V1248.77H194.1ZM36.3004 1265.57L36.0887 1263.59L28.6564 1264.38L35.4907 1267.4L36.3004 1265.57ZM217.2 1345.68L219.014 1346.52L219.872 1344.67L218.01 1343.85L217.2 1345.68ZM205.5 1370.88L204.66 1372.69L206.473 1373.53L207.314 1371.72L205.5 1370.88ZM6.00045 1278.47H4.00045V1279.75L5.15989 1280.29L6.00045 1278.47ZM6.00045 1243.07L5.78497 1241.09L4.00045 1241.28L4.00045 1243.07H6.00045ZM163.8 1225.97L164.016 1227.96L171.147 1227.19L164.645 1224.16L163.8 1225.97ZM6.00045 1152.47H4.00045V1153.75L5.15598 1154.28L6.00045 1152.47ZM6.00045 1117.07L5.78366 1115.08L4.00046 1115.28L4.00045 1117.07H6.00045ZM213.6 1549.75L215.554 1549.32L215.266 1548.01L213.944 1547.78L213.6 1549.75ZM217.8 1574.35L215.815 1574.59L215.818 1574.61L215.822 1574.64L217.8 1574.35ZM219.6 1604.65H221.6H219.6ZM211.8 1645.45L209.981 1644.62L209.975 1644.63L209.969 1644.64L211.8 1645.45ZM161.7 1689.25L161.119 1687.34L161.11 1687.34L161.7 1689.25ZM126.9 1694.35V1692.35V1694.35ZM76.8004 1685.95L77.4839 1684.07L77.477 1684.07L77.47 1684.06L76.8004 1685.95ZM37.5004 1662.55L36.1405 1664.02L37.5004 1662.55ZM11.7004 1625.35L13.5413 1624.57L11.7004 1625.35ZM2.40043 1576.15H0.400435H2.40043ZM5.10044 1541.95L7.0688 1542.3L7.07225 1542.28L7.07532 1542.26L5.10044 1541.95ZM12.0004 1514.64L12.3435 1512.67L10.6965 1512.39L10.1222 1513.96L12.0004 1514.64ZM195.6 1602.25H197.6H195.6ZM194.7 1587.55L192.708 1587.72L192.712 1587.76L192.717 1587.81L194.7 1587.55ZM192.6 1574.65L194.541 1574.16L194.225 1572.9L192.944 1572.68L192.6 1574.65ZM30.9004 1546.45L31.2441 1544.48L29.43 1544.16L28.9652 1545.94L30.9004 1546.45ZM27.9004 1561.15L25.9237 1560.84L25.9179 1560.88L25.9136 1560.92L27.9004 1561.15ZM27.0004 1577.95H29.0004H27.0004ZM33.9004 1613.35L32.0657 1614.14L32.0692 1614.15L32.0728 1614.16L33.9004 1613.35ZM54.0004 1640.95L55.3249 1639.45L54.0004 1640.95ZM84.9004 1658.65L85.5612 1656.76H85.5611L84.9004 1658.65ZM124.5 1664.95V1666.95V1664.95ZM151.5 1661.05L150.963 1659.12L150.942 1659.13L150.922 1659.13L151.5 1661.05ZM174 1649.65L172.793 1648.05L172.766 1648.07L172.739 1648.1L174 1649.65ZM189.6 1630.15L187.821 1629.23L187.807 1629.26L187.794 1629.29L189.6 1630.15ZM195 1855.78H193H195ZM186.6 1821.28L184.841 1822.23L184.847 1822.24L186.6 1821.28ZM164.7 1795.78L165.911 1794.19L164.7 1795.78ZM132.9 1779.58L133.504 1777.67L133.494 1777.67L133.484 1777.66L132.9 1779.58ZM96.3004 1774.18V1776.18V1774.18ZM69.3004 1778.08L68.709 1776.17L69.3004 1778.08ZM47.1004 1789.48L45.8691 1787.9L45.8418 1787.92L45.8152 1787.95L47.1004 1789.48ZM32.4004 1808.68L30.5929 1807.82H30.5929L32.4004 1808.68ZM27.0004 1835.08H25.0004H27.0004ZM35.1004 1869.28L33.3406 1870.23L33.3473 1870.24L35.1004 1869.28ZM57.3004 1895.08L56.0894 1896.67L57.3004 1895.08ZM88.8004 1910.98L89.4042 1909.07L89.3942 1909.07L89.3841 1909.07L88.8004 1910.98ZM125.7 1916.68V1914.68V1916.68ZM152.7 1912.78L152.109 1910.87L152.7 1912.78ZM174.6 1901.08L173.369 1899.5L173.342 1899.53L173.315 1899.55L174.6 1901.08ZM189.6 1882.18L187.793 1881.32L189.6 1882.18ZM2.40042 1832.68H0.400424H2.40042ZM9.60043 1795.18L11.4281 1795.99L9.60043 1795.18ZM29.1004 1767.58L27.7605 1766.09L27.7506 1766.1L27.7409 1766.11L29.1004 1767.58ZM58.2004 1750.78L57.5578 1748.88L58.2004 1750.78ZM94.5004 1745.08V1743.08V1745.08ZM141 1752.58L141.656 1750.69L141.644 1750.68L141.633 1750.68L141 1752.58ZM180.9 1774.78L179.625 1776.32L179.632 1776.32L179.638 1776.33L180.9 1774.78ZM209.1 1810.18L210.889 1809.28L209.1 1810.18ZM219.6 1858.18H217.6H219.6ZM212.4 1895.38L210.573 1894.57L210.567 1894.58L212.4 1895.38ZM192.9 1922.98L191.56 1921.5L191.551 1921.51L191.541 1921.51L192.9 1922.98ZM163.5 1940.08L162.868 1938.18L162.858 1938.19L163.5 1940.08ZM127.5 1945.78V1947.78V1945.78ZM81.0004 1937.98L81.6555 1936.09L81.6442 1936.09L81.6329 1936.08L81.0004 1937.98ZM40.8004 1916.08L39.5253 1917.62L39.5317 1917.63L39.5382 1917.63L40.8004 1916.08ZM12.9004 1880.68L14.6893 1879.79L12.9004 1880.68ZM156.3 1998.97H158.3V1997.27L156.629 1996.99L156.3 1998.97ZM156.3 2026.57H154.3V2028.07L155.739 2028.49L156.3 2026.57ZM205.5 2040.97H207.5V2039.47L206.062 2039.05L205.5 2040.97ZM205.5 2061.67L205.152 2063.64L207.5 2064.05V2061.67H205.5ZM156.3 2052.97L156.649 2051L154.3 2050.58V2052.97H156.3ZM156.3 2096.17L155.972 2098.14L158.3 2098.53V2096.17H156.3ZM132.9 2092.27H130.9V2093.96L132.572 2094.24L132.9 2092.27ZM132.9 2048.77H134.9V2047.09L133.241 2046.8L132.9 2048.77ZM60.0004 2036.17L59.6082 2038.13L59.6339 2038.14L59.6598 2038.14L60.0004 2036.17ZM48.6004 2034.97V2032.97V2034.97ZM32.1004 2040.97L30.6862 2039.55L30.6509 2039.59L30.6173 2039.63L32.1004 2040.97ZM26.4004 2057.77H24.4004H26.4004ZM28.8004 2072.17L26.9571 2072.95L26.9666 2072.97L26.9766 2072.99L28.8004 2072.17ZM34.2004 2083.27L34.4797 2085.25L37.3012 2084.85L35.968 2082.33L34.2004 2083.27ZM10.8004 2086.57L9.06955 2087.57L9.74493 2088.74L11.0797 2088.55L10.8004 2086.57ZM5.10041 2072.17L7.0284 2071.64L7.01728 2071.6L7.00448 2071.56L5.10041 2072.17ZM2.40041 2053.27H0.400414H2.40041ZM5.10041 2036.77L6.99779 2037.4L7.00844 2037.37L7.01801 2037.34L5.10041 2036.77ZM12.6004 2022.37L11.0819 2021.07L11.0636 2021.09L11.0459 2021.11L12.6004 2022.37ZM26.4004 2012.17L27.2427 2013.98L26.4004 2012.17ZM46.5004 2008.27V2010.27V2008.27ZM53.1004 2008.57L52.9193 2010.56L52.9268 2010.56L52.9343 2010.56L53.1004 2008.57ZM61.2004 2009.47L61.5386 2007.5L61.5018 2007.49L61.4648 2007.49L61.2004 2009.47ZM132.9 2021.77L132.562 2023.74L134.9 2024.14V2021.77H132.9ZM132.9 1995.07L133.229 1993.09L130.9 1992.71V1995.07H132.9ZM197.001 112.803C197.001 99.7002 194.131 87.8632 188.354 77.3392L184.847 79.2642C190.27 89.1407 193.001 100.304 193.001 112.803H197.001ZM188.36 77.3514C182.823 67.0963 175.334 58.3788 165.912 51.2093L163.489 54.3926C172.467 61.2236 179.578 69.5065 184.841 79.252L188.36 77.3514ZM165.912 51.2093C156.513 44.0582 145.704 38.5572 133.504 34.6939L132.297 38.5072C144.097 42.2441 154.488 47.5434 163.489 54.3926L165.912 51.2093ZM133.484 34.6876C121.491 31.0286 109.094 29.2004 96.3005 29.2004V33.2004C108.707 33.2004 120.71 34.9723 132.317 38.5135L133.484 34.6876ZM96.3005 29.2004C86.5183 29.2004 77.3174 30.5254 68.7091 33.1899L69.8919 37.0111C78.0836 34.4755 86.8827 33.2004 96.3005 33.2004V29.2004ZM68.7091 33.1899C60.0965 35.8558 52.4757 39.7633 45.8692 44.9248L48.3318 48.0768C54.5253 43.238 61.7045 39.5453 69.8919 37.0111L68.7091 33.1899ZM45.8153 44.9684C39.3858 50.361 34.3114 56.9951 30.593 64.8452L34.208 66.5575C37.6896 59.2072 42.4152 53.0409 48.3857 48.0332L45.8153 44.9684ZM30.593 64.8452C26.8445 72.7589 25.0005 81.861 25.0005 92.102H29.0005C29.0005 82.3425 30.7565 73.8442 34.208 66.5575L30.593 64.8452ZM25.0005 92.102C25.0005 105.192 27.764 116.926 33.3407 127.253L36.8603 125.353C31.637 115.68 29.0005 104.613 29.0005 92.102H25.0005ZM33.3473 127.265C39.0811 137.709 46.6652 146.525 56.0894 153.695L58.5116 150.512C49.5358 143.682 42.3199 135.297 36.8537 125.34L33.3473 127.265ZM56.0894 153.695C65.4902 160.848 76.2057 166.253 88.2169 169.917L89.3841 166.091C77.7953 162.555 67.5107 157.359 58.5116 150.512L56.0894 153.695ZM88.1967 169.911C100.392 173.773 112.896 175.704 125.701 175.704V171.704C113.305 171.704 101.209 169.836 89.4043 166.097L88.1967 169.911ZM125.701 175.704C135.483 175.704 144.684 174.379 153.292 171.715L152.109 167.894C143.917 170.429 135.118 171.704 125.701 171.704V175.704ZM153.292 171.715C161.924 169.043 169.465 165.022 175.886 159.636L173.315 156.571C167.336 161.586 160.277 165.365 152.109 167.894L153.292 171.715ZM175.832 159.68C182.486 154.481 187.68 147.931 191.408 140.059L187.793 138.347C184.322 145.676 179.515 151.726 173.369 156.528L175.832 159.68ZM191.408 140.059C195.156 132.146 197.001 123.044 197.001 112.803H193.001C193.001 122.562 191.245 131.06 187.793 138.347L191.408 140.059ZM4.4005 89.702C4.4005 75.7261 6.7623 63.5116 11.4281 53.0132L7.77287 51.3887C2.83871 62.4909 0.4005 75.2771 0.4005 89.702H4.4005ZM11.4281 53.0132C16.1245 42.4462 22.47 33.4726 30.4601 26.0671L27.741 23.1334C19.331 30.9282 12.6765 40.3551 7.77287 51.3887L11.4281 53.0132ZM30.4405 26.085C38.4243 18.8799 47.8825 13.4126 58.8431 9.69371L57.5579 5.90581C46.1185 9.78713 36.1767 15.5202 27.7606 23.1154L30.4405 26.085ZM58.8431 9.69371C69.8167 5.97045 81.6975 4.09961 94.5005 4.09961V0.0996094C81.3035 0.0996089 68.9844 2.02887 57.5579 5.90581L58.8431 9.69371ZM94.5005 4.09961C110.288 4.09961 125.574 6.56584 140.368 11.4972L141.633 7.70245C126.427 2.63352 110.713 0.0996101 94.5005 0.0996094V4.09961ZM140.345 11.4895C155.132 16.6156 168.219 23.9015 179.625 33.3412L182.176 30.2596C170.382 20.4988 156.869 12.9843 141.656 7.71015L140.345 11.4895ZM179.638 33.3518C191.212 42.7677 200.435 54.3417 207.312 68.0958L210.889 66.307C203.766 52.0603 194.189 40.0337 182.163 30.249L179.638 33.3518ZM207.312 68.0958C214.153 81.7795 217.601 97.466 217.601 115.203H221.601C221.601 96.9384 218.048 80.624 210.889 66.307L207.312 68.0958ZM217.601 115.203C217.601 128.974 215.24 141.09 210.573 151.591L214.228 153.216C219.161 142.117 221.601 129.432 221.601 115.203H217.601ZM210.567 151.604C205.871 162.366 199.532 171.326 191.561 178.52L194.24 181.489C202.669 173.882 209.33 164.442 214.234 153.204L210.567 151.604ZM191.541 178.538C183.565 185.93 174.018 191.491 162.868 195.208L164.133 199.002C175.783 195.119 185.836 189.279 194.26 181.471L191.541 178.538ZM162.858 195.211C151.881 198.935 140.1 200.805 127.501 200.805V204.805C140.501 204.805 152.72 202.875 164.143 198.999L162.858 195.211ZM127.501 200.805C111.722 200.805 96.4432 198.242 81.6556 193.115L80.3454 196.895C95.5578 202.168 111.279 204.805 127.501 204.805V200.805ZM81.633 193.107C66.8529 188.181 53.668 180.995 42.0627 171.553L39.5383 174.656C51.533 184.414 65.1481 191.829 80.368 196.902L81.633 193.107ZM42.0757 171.563C30.6985 162.148 21.57 150.57 14.6894 136.809L11.1116 138.598C18.231 152.837 27.7025 164.86 39.5253 174.645L42.0757 171.563ZM14.6894 136.809C7.84768 123.125 4.4005 107.439 4.4005 89.702H0.4005C0.400499 107.966 3.95331 124.281 11.1116 138.598L14.6894 136.809ZM6.50049 414.995C6.50049 404.074 9.03752 396.13 13.7896 390.83L10.8113 388.159C5.16345 394.459 2.50049 403.515 2.50049 414.995H6.50049ZM13.7661 390.855C18.4347 385.828 26.0826 383.094 37.2005 383.094V379.094C25.5183 379.094 16.5663 381.961 10.8349 388.134L13.7661 390.855ZM37.2005 383.094H43.8005V379.094H37.2005V383.094ZM44.8914 379.418C32.4755 371.338 22.5708 362.008 15.1361 351.443L11.8649 353.744C19.6302 364.78 29.9255 374.451 42.7096 382.771L44.8914 379.418ZM15.1504 351.463C8.00744 341.038 4.40049 328.644 4.40049 314.192H0.40049C0.400489 329.342 4.19353 342.548 11.8506 353.724L15.1504 351.463ZM4.40049 314.192C4.40049 306.807 5.56593 299.833 7.88648 293.257L4.1145 291.926C1.63505 298.952 0.40049 306.378 0.40049 314.192H4.40049ZM7.8686 293.306C10.3805 286.736 13.9475 280.956 18.5701 275.948L15.6309 273.235C10.6534 278.627 6.82052 284.847 4.13238 291.878L7.8686 293.306ZM18.5147 276.006C23.3118 271.208 29.186 267.347 36.1697 264.437L34.6312 260.745C27.215 263.835 20.8892 267.974 15.6863 273.177L18.5147 276.006ZM36.1697 264.437C43.0815 261.557 51.1116 260.091 60.3005 260.091V256.091C50.6894 256.091 42.1195 257.625 34.6312 260.745L36.1697 264.437ZM60.3005 260.091C64.8441 260.091 68.973 260.289 72.6911 260.68L73.1099 256.702C69.228 256.293 64.9569 256.091 60.3005 256.091V260.091ZM72.7015 260.681C76.6502 261.076 81.0062 261.669 85.7717 262.464L86.4293 258.518C81.5948 257.712 77.1508 257.106 73.0995 256.701L72.7015 260.681ZM85.7636 262.462L215.664 284.663L216.337 280.72L86.4374 258.52L85.7636 262.462ZM214.001 282.692V311.192H218.001V282.692H214.001ZM216.335 309.221L80.1349 286.12L79.466 290.064L215.666 313.164L216.335 309.221ZM80.1293 286.119C76.4922 285.513 73.3306 285.103 70.6539 284.898L70.3471 288.886C72.8704 289.08 75.9088 289.471 79.4717 290.065L80.1293 286.119ZM70.6666 284.899C68.1999 284.693 65.4431 284.592 62.4005 284.592V288.592C65.3579 288.592 68.0011 288.69 70.3344 288.885L70.6666 284.899ZM62.4005 284.592C51.18 284.592 42.0325 287.931 35.1863 294.778L38.0147 297.606C43.9685 291.652 52.021 288.592 62.4005 288.592V284.592ZM35.164 294.8C28.522 301.657 25.3005 310.901 25.3005 322.293H29.3005C29.3005 311.683 32.2789 303.527 38.037 297.584L35.164 294.8ZM25.3005 322.293C25.3005 329.415 26.978 336.598 30.2815 343.825L33.9194 342.162C30.823 335.388 29.3005 328.77 29.3005 322.293H25.3005ZM30.2815 343.825C33.5903 351.063 38.3349 357.756 44.4863 363.908L47.3147 361.08C41.466 355.231 37.0107 348.924 33.9194 342.162L30.2815 343.825ZM44.5096 363.931C50.8826 370.098 58.6631 375.413 67.8221 379.891L69.5789 376.297C60.7378 371.975 53.3184 366.889 47.2914 361.057L44.5096 363.931ZM67.7903 379.875C76.9964 384.581 87.4939 387.937 99.2607 389.965L99.9403 386.024C88.507 384.052 78.4045 380.808 69.6107 376.313L67.7903 379.875ZM99.2503 389.964L215.65 410.664L216.351 406.726L99.9507 386.025L99.2503 389.964ZM214.001 408.695V437.196H218.001V408.695H214.001ZM216.349 435.226L50.1489 405.826L49.4521 409.764L215.652 439.165L216.349 435.226ZM50.1927 405.834C49.1456 405.624 47.9071 405.418 46.4833 405.215L45.9176 409.175C47.2938 409.371 48.4553 409.566 49.4082 409.756L50.1927 405.834ZM46.2005 405.195C45.6005 405.195 44.9755 405.195 44.3255 405.195C43.6755 405.195 43.0005 405.195 42.3005 405.195V409.195C43.0005 409.195 43.6755 409.195 44.3255 409.195C44.9755 409.195 45.6005 409.195 46.2005 409.195V405.195ZM42.3005 405.195C36.552 405.195 31.955 406.8 29.0387 410.446L32.1622 412.944C34.046 410.59 37.249 409.195 42.3005 409.195V405.195ZM29.0005 410.495C26.2551 414.156 25.0005 419.031 25.0005 424.895H29.0005C29.0005 419.559 30.1459 415.635 32.2005 412.895L29.0005 410.495ZM27.806 423.065L5.30598 413.165L3.69499 416.826L26.195 426.726L27.806 423.065ZM214.001 501.297L214 658.801H218L218.001 501.297H214.001ZM216.352 656.832L191.152 652.332L190.449 656.27L215.649 660.77L216.352 656.832ZM192.8 654.301V589.799H188.8V654.301H192.8ZM191.146 587.829L6.34587 555.428L5.65509 559.368L190.455 591.769L191.146 587.829ZM8.00048 557.398L8.00048 528.897H4.00048L4.00048 557.398H8.00048ZM5.65509 530.867L190.455 563.268L191.146 559.328L6.34587 526.927L5.65509 530.867ZM192.8 561.298V496.797H188.8V561.298H192.8ZM190.449 498.765L215.649 503.266L216.352 499.328L191.152 494.828L190.449 498.765ZM214 719.316V747.817H218V719.316H214ZM216.346 745.847L31.8464 713.446L31.1545 717.386L215.655 749.787L216.346 745.847ZM29.5005 715.416L29.5005 811.718H33.5005L33.5005 715.416H29.5005ZM31.848 809.749L6.34805 805.249L5.65289 809.188L31.1529 813.688L31.848 809.749ZM8.00047 807.218L8.00047 682.415H4.00047L4.00047 807.218H8.00047ZM5.65434 684.385L215.654 721.286L216.347 717.346L6.34661 680.445L5.65434 684.385ZM16.0981 846.08L214.998 961.283L217.003 957.821L18.1029 842.618L16.0981 846.08ZM214 959.552V991.653H218V959.552H214ZM215.567 989.701L8.86689 1035.6L9.73403 1039.51L216.434 993.605L215.567 989.701ZM11.2492 1037.1L4.94924 1009.8L1.05167 1010.7L7.35167 1038L11.2492 1037.1ZM3.41151 1012.21L63.4115 999.61L62.5894 995.696L2.58941 1008.3L3.41151 1012.21ZM65.0005 997.653L65.0005 900.45H61.0005L61.0005 997.653H65.0005ZM63.9785 898.706L4.5785 865.405L2.62243 868.894L62.0224 902.195L63.9785 898.706ZM5.32143 868.169L18.8214 845.368L15.3795 843.33L1.8795 866.131L5.32143 868.169ZM85.0005 913.951V992.553H89.0005V913.951H85.0005ZM87.4128 994.51L188.513 973.209L187.688 969.295L86.5881 990.596L87.4128 994.51ZM189.087 969.512L87.9866 912.211L86.0143 915.691L187.114 972.992L189.087 969.512ZM213.111 1094.47L216.111 1123.87L220.09 1123.47L217.09 1094.07L213.111 1094.47ZM217.923 1121.68L36.1229 1137.88L36.478 1141.86L218.278 1125.66L217.923 1121.68ZM35.4588 1141.69L193.259 1214.89L194.942 1211.26L37.1421 1138.06L35.4588 1141.69ZM192.1 1213.07V1248.77H196.1V1213.07H192.1ZM193.889 1246.79L36.0887 1263.59L36.5122 1267.56L194.312 1250.76L193.889 1246.79ZM35.4907 1267.4L216.391 1347.51L218.01 1343.85L37.1102 1263.75L35.4907 1267.4ZM215.386 1344.83L203.686 1370.04L207.314 1371.72L219.014 1346.52L215.386 1344.83ZM206.341 1369.06L6.84101 1276.66L5.15989 1280.29L204.66 1372.69L206.341 1369.06ZM8.00045 1278.47L8.00045 1243.07H4.00045L4.00045 1278.47H8.00045ZM6.21592 1245.06L164.016 1227.96L163.585 1223.98L5.78497 1241.09L6.21592 1245.06ZM164.645 1224.16L6.84492 1150.66L5.15598 1154.28L162.956 1227.79L164.645 1224.16ZM8.00045 1152.47L8.00045 1117.07H4.00045L4.00045 1152.47H8.00045ZM6.21725 1119.06L215.317 1096.26L214.884 1092.28L5.78366 1115.08L6.21725 1119.06ZM211.647 1550.17C213.434 1558.31 214.823 1566.45 215.815 1574.59L219.786 1574.1C218.778 1565.84 217.367 1557.58 215.554 1549.32L211.647 1550.17ZM215.822 1574.64C217.003 1582.71 217.6 1592.7 217.6 1604.65H221.6C221.6 1592.59 220.998 1582.38 219.779 1574.06L215.822 1574.64ZM217.6 1604.65C217.6 1620.23 215.035 1633.54 209.981 1644.62L213.62 1646.28C218.966 1634.56 221.6 1620.66 221.6 1604.65H217.6ZM209.969 1644.64C205.079 1655.79 198.455 1664.83 190.117 1671.82L192.684 1674.88C201.546 1667.46 208.522 1657.9 213.632 1646.25L209.969 1644.64ZM190.117 1671.82C181.732 1678.84 172.073 1684.01 161.119 1687.34L162.281 1691.16C173.727 1687.69 183.869 1682.26 192.684 1674.88L190.117 1671.82ZM161.11 1687.34C150.312 1690.68 138.912 1692.35 126.9 1692.35V1696.35C139.289 1696.35 151.089 1694.62 162.291 1691.16L161.11 1687.34ZM126.9 1692.35C109.111 1692.35 92.6443 1689.58 77.4839 1684.07L76.1169 1687.83C91.7566 1693.52 108.69 1696.35 126.9 1696.35V1692.35ZM77.47 1684.06C62.5066 1678.75 49.6464 1671.08 38.8603 1661.08L36.1405 1664.02C47.3545 1674.41 60.6943 1682.35 76.1309 1687.83L77.47 1684.06ZM38.8603 1661.08C28.0789 1651.08 19.6375 1638.92 13.5413 1624.57L9.85954 1626.13C16.1633 1640.97 24.9219 1653.61 36.1405 1664.02L38.8603 1661.08ZM13.5413 1624.57C7.46067 1610.25 4.40043 1594.12 4.40043 1576.15H0.400435C0.400434 1594.58 3.54019 1611.25 9.85954 1626.13L13.5413 1624.57ZM4.40043 1576.15C4.40044 1563.44 5.29444 1552.16 7.0688 1542.3L3.13207 1541.59C1.30643 1551.73 0.400435 1563.26 0.400435 1576.15H4.40043ZM7.07532 1542.26C8.6582 1532.37 10.929 1523.39 13.8787 1515.33L10.1222 1513.96C7.07184 1522.3 4.74267 1531.52 3.12555 1541.63L7.07532 1542.26ZM11.6574 1516.61L213.257 1551.72L213.944 1547.78L12.3435 1512.67L11.6574 1516.61ZM197.6 1602.25C197.6 1596.97 197.296 1591.98 196.684 1587.29L192.717 1587.81C193.305 1592.31 193.6 1597.12 193.6 1602.25H197.6ZM196.693 1587.37C196.285 1582.68 195.569 1578.27 194.541 1574.16L190.66 1575.13C191.632 1579.02 192.316 1583.21 192.708 1587.72L196.693 1587.37ZM192.944 1572.68L31.2441 1544.48L30.5568 1548.42L192.257 1576.62L192.944 1572.68ZM28.9652 1545.94C27.7462 1550.61 26.733 1555.58 25.9237 1560.84L29.8772 1561.45C30.6679 1556.31 31.6546 1551.48 32.8357 1546.95L28.9652 1545.94ZM25.9136 1560.92C25.3037 1566.2 25.0004 1571.88 25.0004 1577.95H29.0004C29.0004 1572.01 29.2972 1566.49 29.8873 1561.38L25.9136 1560.92ZM25.0004 1577.95C25.0004 1591.19 27.3438 1603.26 32.0657 1614.14L35.7351 1612.55C31.257 1602.23 29.0004 1590.71 29.0004 1577.95H25.0004ZM32.0728 1614.16C36.9858 1625.21 43.8545 1634.65 52.676 1642.45L55.3249 1639.45C46.9464 1632.04 40.4151 1623.08 35.7281 1612.53L32.0728 1614.16ZM52.676 1642.45C61.4899 1650.24 72.0218 1656.26 84.2397 1660.54L85.5611 1656.76C73.7791 1652.64 63.711 1646.86 55.3249 1639.45L52.676 1642.45ZM84.2397 1660.54C96.4782 1664.82 109.905 1666.95 124.5 1666.95V1662.95C110.296 1662.95 97.3227 1660.88 85.5612 1656.76L84.2397 1660.54ZM124.5 1666.95C134.087 1666.95 143.283 1665.62 152.079 1662.96L150.922 1659.13C142.518 1661.67 133.713 1662.95 124.5 1662.95V1666.95ZM152.038 1662.97C160.88 1660.51 168.632 1656.59 175.262 1651.2L172.739 1648.1C166.569 1653.11 159.321 1656.79 150.963 1659.12L152.038 1662.97ZM175.208 1651.24C182.082 1646.03 187.479 1639.28 191.407 1631.01L187.794 1629.29C184.122 1637.02 179.119 1643.26 172.793 1648.05L175.208 1651.24ZM191.38 1631.06C195.555 1622.92 197.6 1613.29 197.6 1602.25H193.6C193.6 1612.8 191.646 1621.78 187.821 1629.23L191.38 1631.06ZM197 1855.78C197 1842.68 194.131 1830.84 188.354 1820.32L184.847 1822.24C190.27 1832.12 193 1843.28 193 1855.78H197ZM188.36 1820.33C182.823 1810.07 175.334 1801.36 165.911 1794.19L163.489 1797.37C172.467 1804.2 179.578 1812.48 184.841 1822.23L188.36 1820.33ZM165.911 1794.19C156.513 1787.04 145.704 1781.53 133.504 1777.67L132.297 1781.48C144.097 1785.22 154.488 1790.52 163.489 1797.37L165.911 1794.19ZM133.484 1777.66C121.491 1774.01 109.094 1772.18 96.3004 1772.18V1776.18C108.707 1776.18 120.71 1777.95 132.317 1781.49L133.484 1777.66ZM96.3004 1772.18C86.5182 1772.18 77.3173 1773.5 68.709 1776.17L69.8918 1779.99C78.0836 1777.45 86.8827 1776.18 96.3004 1776.18V1772.18ZM68.709 1776.17C60.0965 1778.83 52.4756 1782.74 45.8691 1787.9L48.3317 1791.05C54.5252 1786.21 61.7044 1782.52 69.8918 1779.99L68.709 1776.17ZM45.8152 1787.95C39.3857 1793.34 34.3113 1799.97 30.5929 1807.82L34.2079 1809.53C37.6895 1802.18 42.4151 1796.02 48.3857 1791.01L45.8152 1787.95ZM30.5929 1807.82C26.8444 1815.74 25.0004 1824.84 25.0004 1835.08H29.0004C29.0004 1825.32 30.7564 1816.82 34.2079 1809.53L30.5929 1807.82ZM25.0004 1835.08C25.0004 1848.17 27.7639 1859.9 33.3406 1870.23L36.8602 1868.33C31.6369 1858.66 29.0004 1847.59 29.0004 1835.08H25.0004ZM33.3473 1870.24C39.081 1880.69 46.6651 1889.5 56.0894 1896.67L58.5115 1893.49C49.5357 1886.66 42.3198 1878.27 36.8536 1868.32L33.3473 1870.24ZM56.0894 1896.67C65.4902 1903.83 76.2056 1909.23 88.2168 1912.89L89.3841 1909.07C77.7953 1905.53 67.5107 1900.34 58.5115 1893.49L56.0894 1896.67ZM88.1966 1912.89C100.392 1916.75 112.896 1918.68 125.7 1918.68V1914.68C113.305 1914.68 101.209 1912.81 89.4042 1909.07L88.1966 1912.89ZM125.7 1918.68C135.483 1918.68 144.684 1917.36 153.292 1914.69L152.109 1910.87C143.917 1913.41 135.118 1914.68 125.7 1914.68V1918.68ZM153.292 1914.69C161.924 1912.02 169.465 1908 175.886 1902.61L173.315 1899.55C167.336 1904.56 160.277 1908.34 152.109 1910.87L153.292 1914.69ZM175.832 1902.66C182.486 1897.46 187.679 1890.91 191.408 1883.04L187.793 1881.32C184.321 1888.65 179.515 1894.7 173.369 1899.5L175.832 1902.66ZM191.408 1883.04C195.156 1875.12 197 1866.02 197 1855.78H193C193 1865.54 191.244 1874.04 187.793 1881.32L191.408 1883.04ZM4.40042 1832.68C4.40042 1818.7 6.76222 1806.49 11.4281 1795.99L7.77279 1794.37C2.83863 1805.47 0.400424 1818.25 0.400424 1832.68H4.40042ZM11.4281 1795.99C16.1244 1785.42 22.47 1776.45 30.46 1769.04L27.7409 1766.11C19.3309 1773.91 12.6765 1783.33 7.77279 1794.37L11.4281 1795.99ZM30.4404 1769.06C38.4242 1761.86 47.8824 1756.39 58.843 1752.67L57.5578 1748.88C46.1184 1752.76 36.1767 1758.5 27.7605 1766.09L30.4404 1769.06ZM58.843 1752.67C69.8166 1748.95 81.6974 1747.08 94.5004 1747.08V1743.08C81.3034 1743.08 68.9843 1745.01 57.5578 1748.88L58.843 1752.67ZM94.5004 1747.08C110.288 1747.08 125.574 1749.54 140.368 1754.47L141.633 1750.68C126.427 1745.61 110.713 1743.08 94.5004 1743.08V1747.08ZM140.345 1754.47C155.132 1759.59 168.219 1766.88 179.625 1776.32L182.176 1773.24C170.382 1763.48 156.869 1755.96 141.656 1750.69L140.345 1754.47ZM179.638 1776.33C191.212 1785.74 200.435 1797.32 207.312 1811.07L210.889 1809.28C203.766 1795.04 194.189 1783.01 182.163 1773.23L179.638 1776.33ZM207.312 1811.07C214.153 1824.76 217.6 1840.44 217.6 1858.18H221.6C221.6 1839.92 218.048 1823.6 210.889 1809.28L207.312 1811.07ZM217.6 1858.18C217.6 1871.95 215.24 1884.07 210.573 1894.57L214.228 1896.19C219.161 1885.09 221.6 1872.41 221.6 1858.18H217.6ZM210.567 1894.58C205.871 1905.34 199.531 1914.3 191.56 1921.5L194.24 1924.47C202.669 1916.86 209.33 1907.42 214.234 1896.18L210.567 1894.58ZM191.541 1921.51C183.565 1928.91 174.018 1934.47 162.868 1938.18L164.133 1941.98C175.783 1938.1 185.836 1932.26 194.26 1924.45L191.541 1921.51ZM162.858 1938.19C151.881 1941.91 140.1 1943.78 127.5 1943.78V1947.78C140.501 1947.78 152.72 1945.85 164.143 1941.98L162.858 1938.19ZM127.5 1943.78C111.722 1943.78 96.4432 1941.22 81.6555 1936.09L80.3453 1939.87C95.5577 1945.15 111.279 1947.78 127.5 1947.78V1943.78ZM81.6329 1936.08C66.8528 1931.16 53.668 1923.97 42.0626 1914.53L39.5382 1917.63C51.5329 1927.39 65.148 1934.81 80.368 1939.88L81.6329 1936.08ZM42.0756 1914.54C30.6984 1905.12 21.5699 1893.55 14.6893 1879.79L11.1116 1881.57C18.2309 1895.81 27.7024 1907.84 39.5253 1917.62L42.0756 1914.54ZM14.6893 1879.79C7.84761 1866.1 4.40042 1850.42 4.40042 1832.68H0.400424C0.400423 1850.94 3.95324 1867.26 11.1116 1881.57L14.6893 1879.79ZM154.3 1998.97V2026.57H158.3V1998.97H154.3ZM155.739 2028.49L204.939 2042.89L206.062 2039.05L156.862 2024.65L155.739 2028.49ZM203.5 2040.97V2061.67H207.5V2040.97H203.5ZM205.849 2059.7L156.649 2051L155.952 2054.94L205.152 2063.64L205.849 2059.7ZM154.3 2052.97V2096.17H158.3V2052.97H154.3ZM156.629 2094.2L133.229 2090.3L132.572 2094.24L155.972 2098.14L156.629 2094.2ZM134.9 2092.27V2048.77H130.9V2092.27H134.9ZM133.241 2046.8L60.3411 2034.2L59.6598 2038.14L132.56 2050.74L133.241 2046.8ZM60.3927 2034.21C56.2802 2033.39 52.3482 2032.97 48.6004 2032.97V2036.97C52.0527 2036.97 55.7206 2037.35 59.6082 2038.13L60.3927 2034.21ZM48.6004 2032.97C41.2034 2032.97 35.1461 2035.09 30.6862 2039.55L33.5146 2042.38C37.0547 2038.84 41.9974 2036.97 48.6004 2036.97V2032.97ZM30.6173 2039.63C26.4109 2044.28 24.4004 2050.4 24.4004 2057.77H28.4004C28.4004 2051.14 30.1899 2046.06 33.5835 2042.31L30.6173 2039.63ZM24.4004 2057.77C24.4004 2063.74 25.2207 2068.82 26.9571 2072.95L30.6437 2071.39C29.1801 2067.92 28.4004 2063.4 28.4004 2057.77H24.4004ZM26.9766 2072.99C28.7917 2077.02 30.6103 2080.76 32.4328 2084.21L35.968 2082.33C34.1905 2078.98 32.4091 2075.32 30.6243 2071.35L26.9766 2072.99ZM33.9211 2081.29L10.5211 2084.59L11.0797 2088.55L34.4797 2085.25L33.9211 2081.29ZM12.5313 2085.57C10.4417 2081.96 8.59849 2077.33 7.0284 2071.64L3.17242 2072.7C4.80234 2078.61 6.75913 2083.58 9.06955 2087.57L12.5313 2085.57ZM7.00448 2071.56C5.27879 2066.19 4.40041 2060.1 4.40041 2053.27H0.400414C0.400414 2060.44 1.32203 2066.95 3.19635 2072.78L7.00448 2071.56ZM4.40041 2053.27C4.40041 2047.89 5.26463 2042.6 6.99779 2037.4L3.20304 2036.14C1.3362 2041.74 0.400414 2047.45 0.400414 2053.27H4.40041ZM7.01801 2037.34C8.54666 2032.18 10.927 2027.61 14.1549 2023.63L11.0459 2021.11C7.4738 2025.52 4.85417 2030.56 3.18281 2036.2L7.01801 2037.34ZM14.1189 2023.67C17.5122 2019.71 21.8719 2016.48 27.2427 2013.98L25.5582 2010.35C19.729 2013.06 14.8886 2016.63 11.0819 2021.07L14.1189 2023.67ZM27.2427 2013.98C32.5189 2011.53 38.9171 2010.27 46.5004 2010.27V2006.27C38.4837 2006.27 31.482 2007.6 25.5582 2010.35L27.2427 2013.98ZM46.5004 2010.27C48.6397 2010.27 50.7793 2010.37 52.9193 2010.56L53.2815 2006.58C51.0216 2006.37 48.7611 2006.27 46.5004 2006.27V2010.27ZM52.9343 2010.56C55.2944 2010.76 57.9609 2011.05 60.9361 2011.45L61.4648 2007.49C58.44 2007.08 55.7064 2006.78 53.2665 2006.57L52.9343 2010.56ZM60.8623 2011.44L132.562 2023.74L133.239 2019.8L61.5386 2007.5L60.8623 2011.44ZM134.9 2021.77V1995.07H130.9V2021.77H134.9ZM132.572 1997.04L155.972 2000.94L156.629 1996.99L133.229 1993.09L132.572 1997.04ZM46.2004 2670.4C45.6004 2670.4 44.9754 2670.4 44.3254 2670.4C43.6754 2670.4 43.0004 2670.4 42.3004 2670.4V2674.4C43.0004 2674.4 43.6754 2674.4 44.3254 2674.4C44.9754 2674.4 45.6004 2674.4 46.2004 2674.4V2670.4ZM46.2004 2670.4H42.3004V2674.4H46.2004V2670.4Z" fill="white" mask="url(#path-1-outside-1_3_49)"/>
</g>
<defs>
<filter id="filter0_d_3_49" x="0.400391" y="0.0996094" width="223.801" height="2720.53" filterUnits="userSpaceOnUse" color-interpolation-filters="sRGB">
<feFlood flood-opacity="0" result="BackgroundImageFix"/>
<feColorMatrix in="SourceAlpha" type="matrix" values="0 0 0 0 0 0 0 0 0 0 0 0 0 0 0 0 0 0 127 0" result="hardAlpha"/>
<feOffset dy="29"/>
<feComposite in2="hardAlpha" operator="out"/>
<feColorMatrix type="matrix" values="0 0 0 0 1 0 0 0 0 0 0 0 0 0 0 0 0 0 1 0"/>
<feBlend mode="normal" in2="BackgroundImageFix" result="effect1_dropShadow_3_49"/>
<feBlend mode="normal" in="SourceGraphic" in2="effect1_dropShadow_3_49" result="shape"/>
</filter>
</defs>
</svg>
