<svg xmlns="http://www.w3.org/2000/svg" viewBox="0 0 182.43 20.79">
  <g id="f0fc5ee7-d936-4545-aeaa-8a0ec07f8eb3" data-name="Layer 2">
    <g id="b23ec0fa-db8c-494b-a824-4b0fcef06bd9" data-name="Layer 1">
      <g>
        <g>
          <path d="M11.51,18.58,9.87,17H5.36V11.17L5,10.73V5.68L3.43,4.22l.42-.45L5.41,5.25H9.8V9.32l.44.47V16.5l1.69,1.63Zm.33-17.1H3.6L1.18,3.9V18.63l2.16,2.16h8.24c.95-.94,1.48-1.47,2.42-2.42V3.64Z" style="fill: red"/>
          <path d="M27.67,1.48H24.84V9.32l.44.47V16.5L27,18.13l-.42.45L24.92,17h-4l-1.5,1.55-.44-.41,1.46-1.55V11.17L20,10.73V1.48H17.82l-1.59,1.6V18.63c.84.84,1.31,1.32,2.16,2.16h8.24c.95-.94,1.48-1.47,2.42-2.42V2.87Z" style="fill: red"/>
          <path d="M30.73,1.41V4.18l1.43,1.45h1.56l.47-.44h1.56l0,2.65.59.63v6.42l-.45.46v4.14l1.26,1.27h2.94l.05-10-.18-.18,0-5.43h1.49l.47.44h1.56L44.9,4.18V1.41Z" style="fill: red"/>
          <path d="M53,16.56l-.46.44H50.93V14.34l-.59-.62V7.3l.44-.46,0-4.14L49.56,1.43l-2.94,0,0,10,.18.18,0,7,2.16,2.17,7.55,0,0-2.77L55,16.58Z" style="fill: red"/>
          <path d="M66.67,12.52H62.28V10.19l-.41-.43V5.68L60.35,4.22l.42-.45,1.56,1.48h3.12l.78.77V8.84l.44.46Zm3.76-8L67.38,1.48H58.1V19.71l1.08,1.08h3.1V16.72l-1.2-1.15.42-.45,1.16,1.11h2.18l.43-.43h1.4v5h2.85l1.25-1.25v-7.3l-.34-.32Z" style="fill: red"/>
          <path d="M88.8,1.48V6.8l.41.44V16.6l1,.94-.41.45-1-1H86.94l-1.6-1.59V11.09l-.44-.47V2.32l-.84-.84h-3V7.7l-.44.46v7.27L79,17H77.21l-1,1-.41-.45,1-.94V10.16l.41-.43V1.48H74.54L73,3V20.79h7.48c1-1,1.74-1.73,2.52-2.52.78.79,1.52,1.53,2.52,2.52H93V3L91.42,1.48Z" style="fill: red"/>
          <path d="M111.12,16.21l-.82.81H107l-1.39,1.34-.42-.45,1.5-1.44v-5.3l-.42-.44V5.67L104.8,4.22l.42-.45,1.56,1.48h3.09l.81.8V9.32l.44.47Zm3.76-11.38c-1.3-1.31-2-2-3.35-3.35h-9V20.79h9.36l3.31-3.3V12.24l-.34-.32Z" style="fill: red"/>
          <path d="M127.49,18.58,125.84,17h-4.51V11.17l-.41-.44V5.68l-1.51-1.46.41-.45,1.56,1.48h4.39V9.32l.44.47V16.5l1.69,1.63Zm.32-17.1h-8.24L117.15,3.9V18.63l2.16,2.16h8.25L130,18.37V3.64Z" style="fill: red"/>
          <path d="M131.66,1.41l0,2.77,1.44,1.45h1.56l.46-.44h1.56V7.86l.59.63v6.42l-.44.46,0,4.14L138,20.78H141l0-10-.18-.18,0-5.43h1.49l.47.44h1.56l1.43-1.45V1.41Z" style="fill: red"/>
          <path d="M165,18.58,163.39,17h-4.51V11.17l-.41-.44V5.68L157,4.22l.41-.45,1.56,1.48h4.39V9.32l.44.47V16.5l1.69,1.63Zm.32-17.1h-8.24c-1,1-1.48,1.47-2.42,2.42V18.63l2.16,2.16h8.25l2.41-2.42V3.64Z" style="fill: red"/>
          <path d="M180.38,8.48H175v2.67l1,1h1.76l1.36-1.52.41.45-.88,1.06v1.89l-.41.43v2.09l1.66,1.61-.41.45L177.81,17h-3.59l-1.68,1.63-.42-.45,1.67-1.61v-5l-.41-.44V5.68l-1.52-1.46.42-.45,2,1.91h4l.43-.43h3.21V3l-1.56-1.56H172L169.61,3.9V18.63c.84.84,1.31,1.32,2.16,2.16h8.5l2.16-2.16V10.52Z" style="fill: red"/>
        </g>
        <g>
          <path d="M11.45,18.51,9.81,17H5.29V11.09l-.41-.43V5.6L3.37,4.14l.41-.45L5.34,5.17H9.73V9.25l.44.46v6.71l1.69,1.64ZM11.78,1.4H3.53c-.94,1-1.47,1.48-2.42,2.42V18.55l2.16,2.16h8.25l2.42-2.41V3.56C13.09,2.72,12.62,2.25,11.78,1.4Z" style="fill: #ff0e0e"/>
          <path d="M27.6,1.4H24.78V9.24l.44.47v6.71l1.69,1.64-.41.45L24.85,17h-4l-1.49,1.54-.45-.41,1.47-1.55V11.09l-.41-.43V1.4H17.76c-.63.62-1,1-1.6,1.6V18.55l2.16,2.16h8.25L29,18.29V2.79Z" style="fill: #ff0e0e"/>
          <path d="M30.67,1.34l0,2.76,1.44,1.45h1.56l.46-.43h1.56V7.78l.59.63v6.42l-.44.46,0,4.14c.5.49.77.77,1.26,1.27h3l0-10-.18-.17,0-5.43h1.49l.47.43H43.4L44.83,4.1V1.34Z" style="fill: #ff0e0e"/>
          <path d="M52.89,16.48l-.47.44H50.86l0-2.65-.59-.62V7.22l.44-.46V2.62c-.49-.5-.76-.78-1.26-1.27H46.55l0,10,.18.18,0,7,2.15,2.17,7.56,0V17.94L54.94,16.5Z" style="fill: #ff0e0e"/>
          <path d="M66.6,12.44H62.21V10.11l-.41-.43V5.6L60.29,4.14l.41-.45,1.56,1.48h3.13l.77.77V8.76l.44.46Zm3.77-8L67.31,1.4H58V19.63l1.09,1.08h3.09V16.64L61,15.49l.41-.45,1.17,1.11h2.18l.43-.43H66.6v5h2.85l1.25-1.25V12.17l-.33-.32Z" style="fill: #ff0e0e"/>
          <path d="M88.74,1.4V6.73l.41.43v9.36l.95.94-.41.45-1-1H86.87c-.62-.63-1-1-1.6-1.6V11l-.44-.47V2.25L84,1.4H81V7.62l-.44.46v7.27L79,17H77.15l-1,1-.42-.45,1-.94V10.08l.41-.43V1.4H74.47L72.91,3V20.71h7.48l2.52-2.52,2.52,2.52h7.49V3L91.36,1.4Z" style="fill: #ff0e0e"/>
          <path d="M111.05,16.13l-.81.82H107l-1.39,1.33-.41-.45,1.49-1.44v-5.3l-.41-.43V5.6l-1.51-1.46.41-.45,1.56,1.48h3.1l.8.81V9.24l.44.47Zm3.77-11.38L111.47,1.4h-9V20.71h9.37l3.3-3.3V12.17l-.33-.32Z" style="fill: #ff0e0e"/>
          <path d="M127.42,18.51,125.78,17h-4.52V11.09l-.41-.43V5.6l-1.51-1.46.42-.45,1.56,1.48h4.38V9.25l.44.46v6.71l1.7,1.64Zm.33-17.11H119.5c-.94,1-1.47,1.48-2.42,2.42V18.55l2.17,2.16h8.24l2.42-2.41V3.56Z" style="fill: #ff0e0e"/>
          <path d="M131.59,1.34V4.1L133,5.55h1.56l.47-.43h1.56l0,2.64.59.63v6.42l-.44.46v4.14L138,20.7h2.94l.05-10-.18-.17,0-5.43h1.5l.46.43h1.57c.55-.57.87-.88,1.43-1.45V1.34Z" style="fill: #ff0e0e"/>
          <path d="M165,18.51,163.33,17h-4.52V11.09l-.41-.43V5.6l-1.51-1.46.41-.45,1.57,1.48h4.38V9.25l.44.46v6.71l1.69,1.64ZM165.3,1.4h-8.25c-.94,1-1.47,1.48-2.42,2.42V18.55l2.17,2.16H165l2.42-2.41V3.56C166.62,2.72,166.14,2.25,165.3,1.4Z" style="fill: #ff0e0e"/>
          <path d="M180.32,8.4H174.9v2.67l1,1h1.77l1.35-1.52.41.45-.88,1.07V14l-.41.43v2.09l1.67,1.61-.42.45L177.75,17h-3.59l-1.69,1.62-.41-.45,1.66-1.61v-5l-.41-.44V5.6L171.8,4.14l.41-.45,2,1.91h4l.43-.43h3.21V3L180.32,1.4H172c-.94,1-1.47,1.48-2.42,2.42V18.55l2.16,2.16h8.5l2.16-2.16V10.44Z" style="fill: #ff0e0e"/>
        </g>
        <g>
          <path d="M11.38,18.43,9.74,16.87H5.23V11l-.41-.43V5.52L3.3,4.06l.42-.45L5.28,5.09H9.66V9.17l.44.46v6.71L11.8,18Zm.33-17.11H3.47L1.05,3.74V18.47l2.16,2.17h8.24l2.42-2.42V3.49Z" style="fill: #ff1c1c"/>
          <path d="M27.53,1.32H24.71V9.17l.44.46v6.71L26.85,18l-.42.45-1.64-1.56h-4l-1.5,1.54L18.8,18l1.47-1.55V11l-.41-.43V1.32H17.69L16.1,2.92V18.47l2.16,2.17H26.5l2.42-2.42V2.71Z" style="fill: #ff1c1c"/>
          <path d="M30.6,1.26V4L32,5.47l1.56,0,.47-.44h1.56l0,2.65.59.62v6.42l-.44.46v4.14L37,20.62h2.94l0-10-.18-.18,0-5.43h1.5l.46.44,1.57,0L44.77,4V1.26Z" style="fill: #ff1c1c"/>
          <path d="M52.82,16.41l-.46.43H50.8V14.19l-.59-.63V7.14l.44-.46,0-4.14L49.43,1.27H46.49l-.05,10,.18.18,0,7,2.15,2.17,7.56,0,0-2.76-1.44-1.45Z" style="fill: #ff1c1c"/>
          <path d="M66.54,12.36h-4.4V10l-.41-.43V5.52L60.22,4.06l.42-.45L62.2,5.09h3.12l.78.77V8.68l.44.46Zm3.76-8-3-3.06H58V19.55l1.08,1.09h3.09V16.56L61,15.41l.42-.45,1.16,1.11h2.18l.43-.43h1.4v5h2.85l1.24-1.25v-7.3l-.33-.32Z" style="fill: #ff1c1c"/>
          <path d="M88.67,1.32V6.65l.41.43v9.36l1,.95-.42.45-1-1H86.8l-1.59-1.6V10.93l-.44-.46V2.17l-.84-.85h-3V7.54L80.49,8v7.27l-1.6,1.6H77.08l-1,1-.41-.45,1-.95V10L77,9.57V1.32H74.41L72.85,2.88V20.64h7.48c1-1,1.74-1.74,2.52-2.52l2.52,2.52h7.48V2.88L91.29,1.32Z" style="fill: #ff1c1c"/>
          <path d="M111,16.06l-.82.81h-3.26l-1.39,1.33-.42-.45,1.49-1.44V11l-.41-.43V5.52l-1.51-1.46.42-.45,1.56,1.48h3.09l.81.81V9.17l.44.46Zm3.76-11.39c-1.31-1.3-2-2-3.35-3.35h-9V20.64h9.36l3.3-3.31V12.09l-.33-.32Z" style="fill: #ff1c1c"/>
          <path d="M127.36,18.43l-1.65-1.56H121.2V11l-.41-.43V5.52l-1.51-1.46.41-.45,1.56,1.48h4.39V9.17l.44.46v6.71L127.77,18Zm.32-17.11h-8.24L117,3.74V18.47l2.16,2.17h8.25l2.41-2.42V3.49Z" style="fill: #ff1c1c"/>
          <path d="M131.53,1.26l0,2.76L133,5.47l1.56,0,.46-.44h1.56V7.71l.59.62v6.42l-.44.46,0,4.14,1.26,1.27h2.94l0-10-.18-.18,0-5.43h1.49l.47.44,1.56,0L145.69,4V1.26Z" style="fill: #ff1c1c"/>
          <path d="M164.9,18.43l-1.64-1.56h-4.51V11l-.41-.43V5.52l-1.52-1.46.42-.45,1.56,1.48h4.39V9.17l.44.46v6.71L165.32,18Zm.33-17.11H157l-2.42,2.42V18.47l2.16,2.17H165l2.41-2.42V3.49Z" style="fill: #ff1c1c"/>
          <path d="M180.25,8.32h-5.41V11l1,1h1.76L179,10.51l.41.45L178.53,12v1.88l-.41.43v2.09L179.78,18l-.41.45-1.69-1.62h-3.59l-1.69,1.62L172,18l1.67-1.61v-5l-.42-.43V5.52l-1.51-1.46.42-.45,2,1.91h4l.43-.43h3.21V2.89l-1.56-1.57h-8.36l-2.41,2.42V18.47l2.16,2.17h8.5l2.16-2.17v-8.1Z" style="fill: #ff1c1c"/>
        </g>
        <g>
          <path d="M11.32,18.35,9.67,16.79H5.16V10.93l-.41-.43V5.44L3.24,4l.41-.45L5.21,5H9.6V9.09l.44.46v6.71l1.69,1.64Zm.33-17.1H3.4L1,3.66V18.4c.85.84,1.32,1.31,2.16,2.16h8.25c.94-.95,1.47-1.48,2.42-2.42V3.41Z" style="fill: #ff2b2b"/>
          <path d="M27.47,1.25H24.65V9.09l.44.46v6.71l1.69,1.64-.41.45-1.65-1.56h-4l-1.49,1.54-.45-.41,1.47-1.55V10.93l-.41-.43V1.25H17.62L16,2.84V18.39l2.16,2.17h8.25l2.41-2.42V2.63Z" style="fill: #ff2b2b"/>
          <path d="M30.54,1.18l0,2.77L32,5.39l1.56,0L34,5h1.56V7.63l.59.62v6.42l-.44.46,0,4.14,1.26,1.27,2.94,0,0-10-.18-.18,0-5.43h1.49l.47.44,1.56,0L44.7,4V1.18Z" style="fill: #ff2b2b"/>
          <path d="M52.76,16.33l-.47.43H50.73l0-2.64-.59-.63V7.06l.44-.46V2.46L49.36,1.19H46.42l-.05,10,.18.18,0,7,2.15,2.17,7.56,0V17.79l-1.43-1.45Z" style="fill: #ff2b2b"/>
          <path d="M66.47,12.28H62.08V10l-.41-.43V5.44L60.16,4l.41-.45L62.13,5h3.13l.77.78V8.6l.44.46Zm3.77-8-3.06-3H57.9V19.47L59,20.56h3.1V16.48l-1.19-1.14.41-.45L62.47,16h2.18l.42-.43h1.4v5h2.85l1.25-1.25V12l-.33-.32Z" style="fill: #ff2b2b"/>
          <path d="M88.61,1.25V6.57L89,7v9.36l1,.95-.41.45-1-1H86.74l-1.6-1.6V10.85l-.44-.46V2.09l-.84-.84h-3V7.46l-.44.46v7.27l-1.59,1.6H77l-1,1-.42-.45,1-.95V9.93L77,9.5V1.25H74.34L72.78,2.8V20.56h7.48L82.78,18c.79.78,1.53,1.52,2.52,2.52h7.48V2.8L91.23,1.25Z" style="fill: #ff2b2b"/>
          <path d="M110.92,16c-.32.31-.5.49-.81.81h-3.27l-1.39,1.34-.41-.45,1.49-1.44V10.93l-.41-.43V5.44L104.61,4l.41-.45L106.58,5h3.09l.81.81V9.09l.44.46ZM114.69,4.6c-1.31-1.31-2-2-3.35-3.35h-9V20.56h9.37l3.3-3.31V12l-.33-.32Z" style="fill: #ff2b2b"/>
          <path d="M127.29,18.35l-1.64-1.56h-4.52V10.93l-.41-.43V5.44L119.21,4l.42-.45L121.19,5h4.38V9.09l.44.46v6.71l1.7,1.64Zm.33-17.1h-8.25L117,3.66V18.4l2.17,2.16h8.24l2.42-2.42V3.41Z" style="fill: #ff2b2b"/>
          <path d="M131.46,1.18V4l1.43,1.44,1.56,0,.47-.44h1.56l0,2.65.59.62v6.42l-.44.46v4.14c.49.5.76.78,1.26,1.27l2.94,0,.05-10-.18-.18,0-5.43h1.5l.46.44,1.56,0L145.63,4l0-2.77Z" style="fill: #ff2b2b"/>
          <path d="M164.84,18.35l-1.64-1.56h-4.52V10.93l-.41-.43V5.44L156.76,4l.41-.45L158.73,5h4.39V9.09l.44.46v6.71l1.69,1.64Zm.33-17.1h-8.25L154.5,3.66V18.4l2.16,2.16h8.25c.94-.95,1.47-1.48,2.42-2.42V3.41Z" style="fill: #ff2b2b"/>
          <path d="M180.19,8.24h-5.42v2.67c.41.41.63.64,1,1h1.77l1.35-1.51.41.45L178.46,12v1.88l-.41.43v2.1l1.67,1.6-.42.45-1.68-1.62H174l-1.69,1.62-.42-.45,1.67-1.6v-5l-.41-.43V5.44L171.67,4l.41-.45,2,1.91h4l.43-.43h3.21V2.81l-1.56-1.56h-8.36l-2.42,2.41V18.4l2.16,2.16h8.5l2.16-2.16V10.29Z" style="fill: #ff2b2b"/>
        </g>
        <g>
          <path d="M11.25,18.27,9.61,16.71H5.09V10.85l-.41-.43V5.36L3.17,3.9l.42-.45L5.15,4.93H9.53V9l.44.46v6.72l1.7,1.63Zm.33-17.1H3.34L.92,3.58V18.32l2.16,2.16h8.24l2.42-2.42V3.33C12.9,2.48,12.42,2,11.58,1.17Z" style="fill: #ff3939"/>
          <path d="M27.4,1.17H24.58V9l.44.46v6.72l1.7,1.63-.42.45-1.64-1.56h-4l-1.5,1.55-.45-.42,1.47-1.55V10.85l-.41-.43V1.17H17.56L16,2.76V18.32l2.17,2.16h8.24l2.42-2.42V2.55Z" style="fill: #ff3939"/>
          <path d="M30.47,1.1V3.87l1.43,1.44,1.56,0,.47-.44h1.56l0,2.65.59.62v6.42l-.44.46v4.14c.49.5.76.78,1.26,1.27l2.94,0,.05-10-.18-.18,0-5.43h1.5l.46.44,1.56,0,1.44-1.44,0-2.77Z" style="fill: #ff3939"/>
          <path d="M52.69,16.25l-.46.44H50.67V14l-.59-.63V7l.44-.46,0-4.14L49.3,1.11H46.35l0,10,.18.18,0,7,2.15,2.17,7.56.05V17.71c-.55-.57-.87-.88-1.43-1.45Z" style="fill: #ff3939"/>
          <path d="M66.4,12.2H62V9.88l-.41-.44V5.36L60.09,3.9l.42-.45,1.56,1.48h3.12l.77.78V8.52L66.4,9Zm3.77-8-3-3H57.84V19.39l1.08,1.09H62V16.41l-1.19-1.15.42-.45,1.16,1.1h2.18l.43-.43H66.4v5h2.86l1.24-1.25v-7.3l-.33-.32Z" style="fill: #ff3939"/>
          <path d="M88.54,1.17V6.49l.41.43v9.36l1,.95-.42.45-1-1H86.67l-1.59-1.6V10.77l-.44-.46V2l-.85-.84h-3V7.38l-.44.46v7.27l-1.6,1.6H77l-1,1-.41-.45,1-.95V9.85l.41-.43V1.17H74.27L72.72,2.72V20.48H80.2c1-1,1.73-1.74,2.52-2.52l2.52,2.52h7.48V2.72L91.16,1.17Z" style="fill: #ff3939"/>
          <path d="M110.85,15.9l-.81.81h-3.27l-1.38,1.34L105,17.6l1.49-1.44V10.85l-.41-.43V5.36L104.54,3.9l.42-.45,1.56,1.48h3.09l.8.81V9l.44.46Zm3.77-11.38-3.35-3.35h-9V20.48h9.37l3.3-3.31V11.93l-.33-.32Z" style="fill: #ff3939"/>
          <path d="M127.22,18.27l-1.64-1.56h-4.51V10.85l-.41-.43V5.36L119.14,3.9l.42-.45,1.56,1.48h4.39V9l.44.46v6.72l1.69,1.63Zm.33-17.1h-8.24l-2.42,2.41V18.32l2.16,2.16h8.25l2.41-2.42V3.33C128.87,2.48,128.4,2,127.55,1.17Z" style="fill: #ff3939"/>
          <path d="M131.39,1.1V3.87l1.43,1.44,1.56,0,.47-.44h1.56V7.55l.59.62v6.42l-.44.46,0,4.14,1.26,1.27,2.94,0,0-10-.18-.18,0-5.43h1.49l.47.44,1.56,0,1.43-1.44V1.1Z" style="fill: #ff3939"/>
          <path d="M164.77,18.27l-1.64-1.56h-4.51V10.85l-.41-.43V5.36L156.69,3.9l.42-.45,1.56,1.48h4.38V9l.44.46v6.72l1.7,1.63Zm.33-17.1h-8.24l-2.42,2.41V18.32l2.16,2.16h8.24l2.42-2.42V3.33Z" style="fill: #ff3939"/>
          <path d="M180.12,8.16h-5.41v2.68l1,1h1.77l1.35-1.51.42.45-.88,1.06v1.88l-.41.43v2.1l1.66,1.6-.41.45-1.69-1.62H174l-1.69,1.62-.41-.45,1.66-1.6v-5l-.41-.43V5.36L171.6,3.9l.42-.45,2,1.91h4l.43-.43h3.21V2.73l-1.56-1.56h-8.36l-2.41,2.41V18.32l2.16,2.16H180l2.17-2.16V10.21Z" style="fill: #ff3939"/>
        </g>
        <g>
          <path d="M11.19,18.19,9.54,16.63H5V10.77l-.41-.43V5.28L3.11,3.82l.41-.44L5.08,4.86H9.47V8.93l.44.46v6.72l1.69,1.63Zm.32-17.1H3.27C2.32,2,1.8,2.56.85,3.51V18.24L3,20.4h8.25L13.68,18V3.25Z" style="fill: #ff4747"/>
          <path d="M27.34,1.09H24.52V8.93l.44.46v6.72l1.69,1.63-.42.45-1.64-1.56h-4l-1.49,1.55-.45-.42,1.47-1.54V10.77l-.41-.43V1.09H17.49L15.9,2.68V18.24l2.16,2.16h8.25L28.72,18V2.47Z" style="fill: #ff4747"/>
          <path d="M30.4,1V3.79l1.43,1.45h1.57l.46-.44h1.56V7.47l.59.62v6.42l-.44.47,0,4.13,1.26,1.27,2.94,0,.05-10-.18-.18,0-5.43h1.49l.47.44h1.56l1.43-1.45V1Z" style="fill: #ff4747"/>
          <path d="M52.63,16.17l-.47.44H50.6l0-2.65L50,13.32V6.91l.45-.47V2.31L49.23,1,46.29,1l0,10,.18.18,0,7,2.15,2.18,7.56,0V17.63l-1.43-1.45Z" style="fill: #ff4747"/>
          <path d="M66.34,12.12H62V9.8l-.41-.43V5.28L60,3.82l.41-.45L62,4.86h3.13l.77.77V8.44l.44.47Zm3.77-8-3.06-3H57.77V19.32l1.08,1.08H62V16.33l-1.19-1.15.41-.45,1.17,1.1h2.17l.43-.43h1.4v5h2.85l1.25-1.25v-7.3l-.33-.32Z" style="fill: #ff4747"/>
          <path d="M88.48,1.09V6.41l.41.43v9.37l1,.94-.41.45-1-1H86.61L85,15V10.69l-.44-.46V1.93l-.84-.84h-3V7.3l-.44.47V15L78.7,16.63H76.88l-1,1-.42-.45,1-.94V9.77l.41-.43V1.09H74.21L72.65,2.65V20.4h7.48l2.52-2.52c.79.78,1.53,1.52,2.52,2.52h7.48V2.65L91.1,1.09Z" style="fill: #ff4747"/>
          <path d="M110.79,15.82l-.81.81h-3.27L105.32,18l-.41-.45,1.49-1.44V10.77l-.41-.43V5.28l-1.51-1.46.41-.45,1.56,1.49h3.09l.81.8V8.93l.44.46Zm3.77-11.38-3.35-3.35h-9V20.4h9.36l3.31-3.3V11.85l-.33-.32Z" style="fill: #ff4747"/>
          <path d="M127.16,18.19l-1.64-1.56H121V10.77l-.41-.43V5.28l-1.51-1.46.41-.44,1.56,1.48h4.39V8.93l.44.46v6.72l1.69,1.63Zm.33-17.1h-8.25l-2.42,2.42V18.24c.85.84,1.32,1.32,2.16,2.16h8.25L129.65,18V3.25Z" style="fill: #ff4747"/>
          <path d="M131.33,1V3.79l1.43,1.45h1.56l.46-.44h1.56V7.47l.59.62v6.42l-.44.47v4.13l1.25,1.27,3,0,0-10-.17-.18,0-5.43H142l.46.44h1.56l1.44-1.45,0-2.77Z" style="fill: #ff4747"/>
          <path d="M164.71,18.19l-1.64-1.56h-4.52V10.77l-.41-.43V5.28l-1.51-1.46.41-.44,1.56,1.48H163V8.93l.44.46v6.72l1.69,1.63ZM165,1.09h-8.25l-2.42,2.42V18.24l2.16,2.16h8.25L167.2,18V3.25Z" style="fill: #ff4747"/>
          <path d="M180.06,8.08h-5.42v2.68l1,1h1.76l1.36-1.51.41.45-.88,1.06v1.88l-.41.44V16.2l1.67,1.61-.42.44-1.68-1.62h-3.6l-1.68,1.62-.42-.44,1.67-1.61v-5l-.41-.43V5.28l-1.51-1.46.41-.44,2,1.91h4l.43-.43h3.22V2.65l-1.57-1.56H171.7l-2.42,2.42V18.24l2.16,2.16h8.5l2.16-2.16V10.13Z" style="fill: #ff4747"/>
        </g>
        <g>
          <path d="M11.12,18.11,9.48,16.55H5V10.7l-.41-.44V5.2L3,3.75l.42-.45L5,4.78H9.4V8.85l.44.47V16l1.7,1.63ZM11.45,1H3.2L.79,3.43V18.16C1.63,19,2.1,19.48,3,20.32h8.24c1-.94,1.48-1.47,2.42-2.42V3.17Z" style="fill: #f55"/>
          <path d="M27.27,1H24.45V8.85l.44.47V16l1.69,1.63-.41.45-1.64-1.56H20.48L19,18.1l-.45-.42L20,16.14V10.7l-.41-.44V1H17.43L15.83,2.6V18.16c.85.84,1.32,1.32,2.16,2.16h8.25l2.42-2.42V2.39Z" style="fill: #f55"/>
          <path d="M30.34.94V3.71l1.43,1.45h1.56l.47-.44h1.55V7.39l.59.63v6.41l-.44.47V19l1.25,1.27h2.95l0-10-.17-.18,0-5.43h1.5l.46.44h1.56l1.44-1.45,0-2.77Z" style="fill: #f55"/>
          <path d="M52.56,16.09l-.46.44H50.54V13.87L50,13.25V6.83l.44-.46,0-4.14L49.17,1l-3,0,0,10,.17.18,0,7,2.15,2.17,7.56,0V17.55l-1.43-1.44Z" style="fill: #f55"/>
          <path d="M66.27,12.05H61.88V9.72l-.41-.43V5.2L60,3.75l.42-.45,1.56,1.48h3.12l.77.77V8.36l.44.47Zm3.77-8C68.85,2.87,68.18,2.2,67,1H57.7V19.24l1.09,1.08h3.09V16.25L60.69,15.1l.42-.45,1.16,1.11h2.18l.43-.43h1.39v5h2.85l1.25-1.25v-7.3L70,11.45Z" style="fill: #f55"/>
          <path d="M88.41,1V6.33l.41.43v9.37l1,.94-.42.45-1-1H86.54L85,15V10.61l-.44-.46V1.85L83.66,1h-3V7.22l-.44.47V15l-1.6,1.59H76.82l-1,1-.41-.45.95-.94V9.69l.41-.43V1H74.14L72.59,2.57V20.32h7.48c1-1,1.73-1.74,2.52-2.52l2.52,2.52h7.48V2.57L91,1Z" style="fill: #f55"/>
          <path d="M110.72,15.74c-.31.32-.49.5-.81.81h-3.27l-1.39,1.34-.41-.45L106.33,16V10.69l-.41-.43V5.2l-1.51-1.45.42-.45,1.56,1.48h3.09l.8.8V8.85l.44.47Zm3.77-11.38L111.14,1h-9V20.32h9.37l3.3-3.3V11.77l-.33-.32Z" style="fill: #f55"/>
          <path d="M127.09,18.11l-1.64-1.56h-4.51V10.7l-.41-.44V5.2L119,3.75l.42-.45L121,4.78h4.38V8.85l.44.47V16l1.7,1.63ZM127.42,1h-8.24c-1,.94-1.48,1.47-2.42,2.42V18.16c.84.84,1.31,1.32,2.16,2.16h8.24c1-.94,1.48-1.47,2.42-2.42V3.17C128.74,2.33,128.27,1.85,127.42,1Z" style="fill: #f55"/>
          <path d="M131.26.94V3.71l1.43,1.45h1.56l.47-.44h1.56V7.39l.58.63v6.41l-.44.47,0,4.14,1.26,1.27h2.94l0-10-.18-.18,0-5.43H142l.47.44H144l1.43-1.45V.94Z" style="fill: #f55"/>
          <path d="M164.64,18.11,163,16.55h-4.51V10.7l-.42-.44V5.2l-1.51-1.45L157,3.3l1.56,1.48h4.38V8.85l.44.47V16l1.7,1.63ZM165,1h-8.24l-2.42,2.42V18.16l2.16,2.16h8.24l2.42-2.42V3.17Z" style="fill: #f55"/>
          <path d="M180,8h-5.41v2.67l1,1h1.77l1.35-1.52.42.45-.88,1.06V13.6l-.41.43v2.09l1.66,1.61-.41.45-1.69-1.63h-3.59l-1.69,1.63-.41-.45,1.66-1.61v-5l-.41-.43V5.2l-1.51-1.45.42-.45,2,1.91h4l.43-.43h3.21V2.57L180,1h-8.36l-2.42,2.42V18.16l2.17,2.16h8.49L182,18.16V10.05Z" style="fill: #f55"/>
        </g>
        <g>
          <path d="M11.06,18,9.41,16.47H4.9V10.62l-.41-.44v-5L3,3.67l.41-.45L5,4.7H9.34V8.77l.44.47V16l1.69,1.63ZM11.38.93H3.14L.72,3.35V18.08c.84.85,1.32,1.32,2.16,2.16h8.25l2.42-2.42V3.09Z" style="fill: #ff6363"/>
          <path d="M27.21.93H24.38V8.77l.44.47V16l1.7,1.63L26.1,18l-1.64-1.56h-4L18.93,18l-.45-.41L20,16.06V10.62l-.41-.44V.93H17.36l-1.59,1.6V18.08c.84.85,1.31,1.32,2.16,2.16h8.24c.95-.94,1.48-1.47,2.42-2.42V2.32Z" style="fill: #ff6363"/>
          <path d="M30.27.86V3.63l1.43,1.45h1.56l.47-.43h1.56V7.31l.58.63v6.42l-.44.46,0,4.14,1.26,1.27h2.94l0-10-.18-.18,0-5.43H41l.47.43H43l1.43-1.45V.86Z" style="fill: #ff6363"/>
          <path d="M52.5,16l-.47.44H50.47V13.79l-.58-.62V6.75l.45-.46V2.15L49.1.88l-2.94,0,0,10,.18.18,0,7,2.15,2.17,7.56,0V17.47L54.55,16Z" style="fill: #ff6363"/>
          <path d="M66.21,12H61.82V9.64l-.41-.43V5.13L59.9,3.67l.41-.45L61.87,4.7H65l.77.77V8.29l.44.46ZM70,4,66.92.93H57.64V19.16l1.08,1.08h3.1V16.17L60.63,15l.41-.45,1.16,1.11h2.18l.43-.43h1.4v5h2.85L70.31,19v-7.3L70,11.37Z" style="fill: #ff6363"/>
          <path d="M88.34.93V6.25l.41.44v9.36l1,.94-.41.45-1-1H86.48l-1.6-1.59V10.54l-.44-.47V1.77L83.6.93h-3V7.15l-.44.46v7.27l-1.59,1.59H76.75l-1,1L75.33,17l1-.94V9.61l.41-.43V.93H74.08L72.52,2.49V20.24H80c1-1,1.74-1.73,2.52-2.52.78.79,1.53,1.53,2.52,2.52h7.48V2.49L91,.93Z" style="fill: #ff6363"/>
          <path d="M110.66,15.66l-.81.81h-3.27l-1.39,1.34-.42-.45,1.5-1.44v-5.3l-.41-.44v-5l-1.52-1.46.42-.45,1.56,1.48h3.09l.81.8V8.77l.44.47Zm3.77-11.38L111.07.93h-9V20.24h9.36l3.31-3.3V11.69l-.33-.32Z" style="fill: #ff6363"/>
          <path d="M127,18l-1.64-1.56h-4.52V10.62l-.41-.44v-5L119,3.67l.41-.45,1.56,1.48h4.39V8.77l.44.47V16l1.69,1.63Zm.33-17.1h-8.25c-.94.95-1.47,1.48-2.42,2.42V18.08l2.16,2.16h8.25l2.42-2.42V3.09C128.67,2.25,128.2,1.78,127.36.93Z" style="fill: #ff6363"/>
          <path d="M131.2.86l0,2.77,1.44,1.45h1.56l.46-.43h1.56V7.31l.59.63v6.42l-.44.46,0,4.14c.5.49.77.77,1.26,1.27h3l0-10-.17-.18,0-5.43h1.5l.46.43h1.56l1.44-1.45,0-2.77Z" style="fill: #ff6363"/>
          <path d="M164.58,18l-1.65-1.56h-4.51V10.62l-.41-.44v-5L156.5,3.67l.41-.45,1.56,1.48h4.39V8.77l.44.47V16L165,17.58ZM164.9.93h-8.24l-2.42,2.42V18.08l2.16,2.16h8.25l2.42-2.42V3.09Z" style="fill: #ff6363"/>
          <path d="M179.92,7.93h-5.41V10.6l1,1h1.76l1.36-1.52.41.45-.88,1.07v1.88l-.41.43V16l1.67,1.61-.42.45-1.68-1.63h-3.6l-1.68,1.63-.42-.45L173.33,16V11l-.41-.44V5.13l-1.51-1.46.41-.45,2,1.91h4l.43-.43h3.22V2.49L179.92.93h-8.35l-2.42,2.42V18.08l2.16,2.16h8.5L182,18.08V10Z" style="fill: #ff6363"/>
        </g>
        <g>
          <path d="M11,18,9.35,16.4H4.83V10.54l-.41-.43V5.05L2.91,3.59l.42-.45L4.89,4.62H9.27V8.7l.44.46v6.71l1.7,1.64ZM11.32.85H3.07C2.13,1.8,1.6,2.33.65,3.27V18l2.17,2.16h8.24l2.42-2.41V3C12.64,2.17,12.16,1.7,11.32.85Z" style="fill: #ff7171"/>
          <path d="M27.14.85H24.32V8.69l.44.47v6.71l1.69,1.64L26,18,24.4,16.4h-4l-1.49,1.54-.45-.41L19.88,16V10.54l-.41-.43V.85H17.3l-1.6,1.6V18l2.16,2.16h8.25l2.42-2.41V2.24Z" style="fill: #ff7171"/>
          <path d="M30.21.79l0,2.76L31.63,5h1.56l.46-.43h1.56V7.23l.59.63v6.42l-.44.46v4.14l1.25,1.27h3l0-10L39.4,10l0-5.43h1.5l.46.43h1.56l1.44-1.45,0-2.76Z" style="fill: #ff7171"/>
          <path d="M52.43,15.93l-.46.44H50.41V13.71l-.59-.62V6.67l.44-.46V2.07L49,.8H46.09l0,10,.17.18,0,7,2.15,2.17,7.56,0V17.39L54.48,16Z" style="fill: #ff7171"/>
          <path d="M66.14,11.89H61.75V9.56l-.41-.43V5.05L59.83,3.59l.41-.45,1.57,1.48h3.12l.77.77V8.21l.44.46Zm3.77-8L66.85.85H57.57V19.08l1.09,1.08h3.09V16.09l-1.19-1.15.42-.45,1.16,1.11h2.18l.43-.43h1.39v5H69c.49-.48.76-.76,1.25-1.25V11.62l-.33-.32Z" style="fill: #ff7171"/>
          <path d="M88.28.85V6.18l.41.43V16l1,.94-.42.45-1-1H86.41l-1.59-1.6V10.46L84.38,10V1.7L83.53.85h-3V7.07l-.44.46V14.8l-1.6,1.6H76.69l-1,1-.41-.45,1-.94V9.53l.41-.43V.85H74L72.45,2.41V20.16h7.49l2.52-2.52c.78.79,1.52,1.53,2.52,2.52h7.48V2.41L90.9.85Z" style="fill: #ff7171"/>
          <path d="M110.59,15.58l-.81.82h-3.27l-1.39,1.33-.41-.45,1.49-1.44v-5.3l-.41-.43V5.05l-1.51-1.46.41-.45,1.56,1.48h3.1l.8.81V8.69l.44.47ZM114.36,4.2,111,.85h-9V20.16h9.37l3.3-3.3V11.62l-.33-.32Z" style="fill: #ff7171"/>
          <path d="M127,18l-1.64-1.56h-4.51V10.54l-.41-.43V5.05l-1.52-1.46.42-.45,1.56,1.48h4.38V8.7l.44.46v6.71l1.7,1.64ZM127.29.85h-8.24l-2.42,2.42V18c.84.85,1.31,1.32,2.16,2.16H127l2.42-2.41V3C128.61,2.17,128.13,1.7,127.29.85Z" style="fill: #ff7171"/>
          <path d="M131.13.79V3.55L132.55,5h1.56l.47-.43h1.56V7.23l.58.63v6.42l-.45.46v4.14l1.26,1.27h2.94l.05-10-.18-.17,0-5.43h1.49l.47.43h1.56l1.43-1.45V.79Z" style="fill: #ff7171"/>
          <path d="M164.51,18l-1.64-1.56h-4.52V10.54l-.41-.43V5.05l-1.51-1.46.42-.45,1.56,1.48h4.38V8.7l.44.46v6.71l1.7,1.64ZM164.84.85h-8.25l-2.41,2.42V18l2.16,2.16h8.24L167,17.75V3Z" style="fill: #ff7171"/>
          <path d="M179.86,7.85h-5.41v2.67l1,1h1.77L178.6,10l.42.45-.88,1.07v1.88l-.41.43V16l1.66,1.61L179,18l-1.69-1.62H173.7L172,18l-.41-.45L173.26,16v-5l-.41-.43V5.05l-1.51-1.46.41-.45,2,1.91h4l.43-.43h3.21V2.42L179.86.85H171.5l-2.42,2.42V18l2.17,2.16h8.49L181.9,18V9.89Z" style="fill: #ff7171"/>
        </g>
        <g>
          <path d="M10.93,17.88,9.28,16.32H4.77V10.46L4.36,10V5L2.85,3.51l.41-.45L4.82,4.54H9.21V8.62l.44.46v6.71l1.69,1.64ZM11.25.77H3L.59,3.19V17.92l2.16,2.17H11l2.41-2.42V2.94Z" style="fill: #ff8080"/>
          <path d="M27.08.77H24.25V8.62l.44.46v6.71l1.7,1.64-.42.45-1.64-1.56h-4L18.8,17.86l-.45-.41,1.47-1.55V10.46L19.4,10V.77H17.23l-1.59,1.6V17.92l2.16,2.17H26l2.42-2.42V2.16Z" style="fill: #ff8080"/>
          <path d="M30.14.71V3.47l1.43,1.45,1.56,0,.47-.44h1.56V7.16l.58.62V14.2l-.45.46V18.8l1.26,1.27h2.94l0-10-.18-.18,0-5.43h1.49l.47.44,1.56,0,1.43-1.45V.71Z" style="fill: #ff8080"/>
          <path d="M52.37,15.86l-.47.43H50.34V13.64L49.76,13V6.59l.44-.46,0-4.14L49,.72H46l-.05,10,.18.18,0,7L48.28,20l7.55,0,0-2.76-1.44-1.45Z" style="fill: #ff8080"/>
          <path d="M66.08,11.81H61.69V9.48l-.41-.43V5L59.76,3.51l.42-.45,1.56,1.48h3.12l.78.77V8.13l.44.46Zm3.77-8L66.79.77H57.51V19l1.08,1.09h3.1V16L60.5,14.86l.41-.45,1.16,1.11h2.18l.43-.43h1.4v5h2.85c.49-.49.76-.77,1.25-1.25v-7.3l-.33-.32Z" style="fill: #ff8080"/>
          <path d="M88.21.77V6.1l.41.43v9.36l1,.95-.41.45-1-1H86.35l-1.6-1.6V10.38l-.44-.46V1.62L83.47.77h-3V7L80,7.45v7.27l-1.6,1.6H76.62l-1,1-.42-.45,1-.95V9.46L76.57,9V.77H74L72.39,2.33V20.09h7.48l2.52-2.52,2.52,2.52h7.48V2.33L90.83.77Z" style="fill: #ff8080"/>
          <path d="M110.53,15.51c-.32.31-.5.49-.81.81h-3.27l-1.39,1.33-.42-.45,1.5-1.44v-5.3l-.41-.43V5l-1.52-1.46.42-.45,1.56,1.48h3.09l.81.81V8.62l.44.46ZM114.3,4.12,110.94.77h-9V20.09h9.36l3.31-3.31V11.54l-.33-.32Z" style="fill: #ff8080"/>
          <path d="M126.9,17.88l-1.65-1.56h-4.51V10.46l-.41-.43V5l-1.51-1.46.41-.45,1.56,1.48h4.39V8.62l.44.46v6.71l1.69,1.64ZM127.22.77H119c-.94,1-1.47,1.48-2.42,2.42V17.92l2.16,2.17H127l2.42-2.42V2.94Z" style="fill: #ff8080"/>
          <path d="M131.07.71l0,2.76,1.44,1.45,1.56,0,.46-.44h1.56V7.16l.59.62V14.2l-.44.46,0,4.14,1.26,1.27h2.95l0-10-.17-.18,0-5.43h1.5l.46.44,1.56,0c.56-.56.88-.88,1.43-1.45V.71Z" style="fill: #ff8080"/>
          <path d="M164.45,17.88l-1.65-1.56h-4.51V10.46l-.41-.43V5l-1.51-1.46.41-.45,1.56,1.48h4.39V8.62l.44.46v6.71l1.69,1.64ZM164.77.77h-8.24l-2.42,2.42V17.92l2.16,2.17h8.25l2.42-2.42V2.94Z" style="fill: #ff8080"/>
          <path d="M179.79,7.77h-5.41v2.67l1,1h1.76L178.54,10l.41.45-.88,1.07v1.88l-.41.43v2.09l1.67,1.61-.42.45-1.69-1.62h-3.59L172,17.94l-.42-.45,1.67-1.61v-5l-.41-.43V5l-1.52-1.46.42-.45,2,1.91h4l.43-.43h3.22V2.34L179.79.77h-8.35L169,3.19V17.92l2.16,2.17h8.5l2.16-2.17V9.82Z" style="fill: #ff8080"/>
        </g>
        <g>
          <path d="M10.86,17.8,9.22,16.24H4.7V10.38L4.29,10V4.89L2.78,3.43,3.19,3,4.76,4.46H9.14V8.54L9.58,9v6.71l1.69,1.64ZM11.19.7H2.94L.52,3.11V17.85c.85.84,1.32,1.31,2.16,2.16h8.25c.94-1,1.47-1.48,2.42-2.42V2.86C12.51,2,12,1.54,11.19.7Z" style="fill: #ff8e8e"/>
          <path d="M27,.7H24.19V8.54l.44.46v6.71l1.69,1.64-.41.45-1.65-1.56h-4l-1.49,1.55-.45-.42,1.47-1.55V10.38L19.34,10V.7H17.17l-1.6,1.59V17.85c.85.84,1.32,1.31,2.16,2.16H26c.94-1,1.47-1.48,2.42-2.42V2.08Z" style="fill: #ff8e8e"/>
          <path d="M30.08.63l0,2.77L31.5,4.84l1.56,0,.46-.44h1.56V7.08l.59.62v6.42l-.44.46,0,4.14L36.45,20l2.95,0,0-10-.17-.18,0-5.43h1.5l.46.44,1.56,0L44.24,3.4V.63Z" style="fill: #ff8e8e"/>
          <path d="M52.3,15.78l-.47.43H50.28V13.56l-.59-.63V6.51l.44-.46V1.91L48.91.64H46l0,10,.17.18,0,7L48.21,20l7.56.05V17.24l-1.43-1.45Z" style="fill: #ff8e8e"/>
          <path d="M66,11.73H61.62V9.41L61.21,9V4.89L59.7,3.43,60.11,3l1.56,1.48H64.8l.77.78V8.05l.44.46Zm3.77-8L66.72.7H57.44V18.92L58.53,20h3.09V15.94l-1.19-1.15.41-.45L62,15.44h2.18l.43-.43H66v5h2.85l1.25-1.25v-7.3l-.33-.32Z" style="fill: #ff8e8e"/>
          <path d="M88.15.7V6l.41.43v9.36l1,1-.42.45-1-1H86.28l-1.59-1.6V10.3l-.44-.46V1.54L83.4.7h-3V6.91L80,7.37v7.27l-1.6,1.6H76.56l-1,1-.42-.45,1-1V9.38L76.5,9V.7H73.88L72.32,2.25V20h7.49l2.51-2.52c.79.78,1.53,1.52,2.52,2.52h7.49V2.25L90.77.7Z" style="fill: #ff8e8e"/>
          <path d="M110.46,15.43l-.81.81h-3.27L105,17.58l-.41-.45,1.49-1.44V10.38l-.41-.43V4.89l-1.51-1.46.41-.45,1.56,1.48h3.1l.8.81V8.54l.44.46Zm3.77-11.38L110.88.7h-9V20h9.37l3.3-3.31V11.46l-.33-.32Z" style="fill: #ff8e8e"/>
          <path d="M126.83,17.8l-1.64-1.56h-4.52V10.38l-.41-.43V4.89l-1.51-1.46.42-.45,1.56,1.48h4.38V8.54l.44.46v6.71l1.7,1.64ZM127.16.7h-8.25L116.5,3.11V17.85L118.66,20h8.24l2.42-2.42V2.86Z" style="fill: #ff8e8e"/>
          <path d="M131,.63V3.4l1.43,1.44,1.56,0,.47-.44H136l0,2.65.59.62v6.42l-.45.46v4.14L137.38,20l2.94,0,.05-10-.18-.18,0-5.43h1.49l.47.44,1.56,0,1.43-1.44V.63Z" style="fill: #ff8e8e"/>
          <path d="M164.38,17.8l-1.64-1.56h-4.52V10.38l-.41-.43V4.89L156.3,3.43l.42-.45,1.56,1.48h4.38V8.54l.44.46v6.71l1.7,1.64ZM164.71.7h-8.25L154,3.11V17.85L156.21,20h8.24l2.42-2.42V2.86Z" style="fill: #ff8e8e"/>
          <path d="M179.73,7.69h-5.42v2.67l1,1h1.77l1.35-1.51.42.45L178,11.4v1.88l-.42.43v2.1l1.67,1.6-.41.45-1.69-1.62h-3.59l-1.69,1.62-.41-.45,1.66-1.6v-5l-.41-.43V4.89l-1.51-1.46.41-.45,2,1.91h4l.43-.43h3.21V2.26L179.73.7h-8.36L169,3.11V17.85c.85.84,1.32,1.31,2.16,2.16h8.5l2.16-2.16V9.74Z" style="fill: #ff8e8e"/>
        </g>
        <g>
          <path d="M10.79,17.72,9.15,16.16H4.64V10.3l-.41-.43V4.81L2.71,3.35l.42-.45L4.69,4.38H9.08V8.46l.44.46v6.72l1.69,1.63ZM11.12.62H2.88C1.93,1.56,1.4,2.09.46,3V17.77c.84.84,1.32,1.31,2.16,2.16h8.24l2.42-2.42V2.78C12.44,1.93,12,1.46,11.12.62Z" style="fill: #ff9c9c"/>
          <path d="M27,.62H24.12V8.46l.44.46v6.72l1.7,1.63-.42.45L24.2,16.16h-4l-1.5,1.55-.44-.42,1.46-1.55V10.3l-.41-.43V.62H17.1L15.51,2.21V17.77l2.16,2.16h8.24l2.42-2.42V2Z" style="fill: #ff9c9c"/>
          <path d="M30,.55V3.32l1.43,1.44,1.56,0,.47-.44H35L35,7l.59.62V14l-.45.46v4.14l1.26,1.27,2.94,0,.05-10-.18-.18,0-5.43h1.49l.47.44,1.56,0,1.43-1.44V.55Z" style="fill: #ff9c9c"/>
          <path d="M52.23,15.7l-.46.44H50.21V13.48l-.59-.63V6.43L50.08,6l0-4.14L48.84.56H45.9l0,10,.18.18,0,7,2.16,2.17,7.55.05,0-2.77-1.44-1.45Z" style="fill: #ff9c9c"/>
          <path d="M66,11.65H61.56V9.33l-.41-.44V4.81L59.63,3.35l.42-.45,1.56,1.49h3.12l.78.77V8l.44.46Zm3.76-8-3-3H57.38V18.84l1.08,1.09h3.1V15.86l-1.2-1.15.42-.45,1.16,1.1h2.18l.43-.43H66v5H68.8l1.25-1.25v-7.3l-.34-.32Z" style="fill: #ff9c9c"/>
          <path d="M88.08.62V5.94l.41.43v9.36l1,.95-.41.45-1-1H86.22c-.63-.62-1-1-1.6-1.6V10.22l-.44-.46V1.46L83.34.62h-3V6.83l-.44.47v7.26c-.62.63-1,1-1.6,1.6H76.49l-1,1-.41-.45,1-.95V9.3l.41-.43V.62H73.82L72.26,2.17V19.93h7.48l2.52-2.52,2.52,2.52h7.48V2.17L90.7.62Z" style="fill: #ff9c9c"/>
          <path d="M110.4,15.35l-.82.81h-3.26l-1.39,1.34-.42-.45,1.5-1.44V10.3l-.41-.43V4.81l-1.52-1.46.42-.45,1.56,1.48h3.09l.81.81V8.46l.44.46ZM114.16,4c-1.3-1.31-2-2.05-3.35-3.35h-9V19.93h9.36l3.31-3.31V11.38l-.34-.32Z" style="fill: #ff9c9c"/>
          <path d="M126.77,17.72l-1.65-1.56h-4.51V10.3l-.41-.43V4.81l-1.51-1.46.41-.45,1.56,1.48h4.39V8.46l.44.46v6.72l1.69,1.63Zm.32-17.1h-8.24L116.43,3V17.77l2.16,2.16h8.25l2.42-2.42V2.78Z" style="fill: #ff9c9c"/>
          <path d="M130.94.55l0,2.77,1.44,1.44,1.56,0,.46-.44h1.56V7l.59.62V14l-.44.46,0,4.14,1.26,1.27,2.95,0,0-10-.18-.18,0-5.43h1.49l.47.44,1.56,0,1.43-1.44V.55Z" style="fill: #ff9c9c"/>
          <path d="M164.32,17.72l-1.65-1.56h-4.51V10.3l-.41-.43V4.81l-1.51-1.46.41-.45,1.56,1.48h4.39V8.46l.44.46v6.72l1.69,1.63Zm.32-17.1H156.4c-1,.94-1.48,1.47-2.42,2.42V17.77c.84.84,1.32,1.31,2.16,2.16h8.25l2.41-2.42V2.78C166,1.93,165.49,1.46,164.64.62Z" style="fill: #ff9c9c"/>
          <path d="M179.66,7.61h-5.41v2.68l1,1h1.76l1.36-1.51.41.45-.88,1.06V13.2l-.41.43v2.1l1.66,1.6-.41.45-1.69-1.62H173.5l-1.68,1.62-.42-.45,1.67-1.6v-5l-.41-.43V4.81l-1.52-1.46.42-.45,2,1.91h4l.43-.42h3.21V2.18L179.66.62h-8.35L168.89,3V17.77l2.16,2.16h8.5l2.16-2.16V9.66Z" style="fill: #ff9c9c"/>
        </g>
        <g>
          <path d="M10.73,17.64,9.09,16.08H4.57V10.22l-.41-.43V4.73L2.65,3.27l.41-.44L4.62,4.31H9V8.38l.44.46v6.72l1.69,1.63ZM11.06.54H2.81L.39,3V17.69c.85.84,1.32,1.32,2.16,2.16H10.8l2.42-2.42V2.7C12.37,1.86,11.9,1.38,11.06.54Z" style="fill: #faa"/>
          <path d="M26.88.54H24.06V8.38l.44.46v6.72l1.69,1.63-.41.45-1.65-1.56h-4L18.6,17.63l-.45-.42,1.47-1.54V10.22l-.41-.43V.54H17l-1.6,1.59V17.69l2.16,2.16h8.25c.94-1,1.47-1.47,2.42-2.42V1.92Z" style="fill: #faa"/>
          <path d="M30,.47l0,2.77,1.44,1.45h1.56l.46-.44H35V6.92l.59.63V14l-.44.47,0,4.13,1.26,1.27,3,0,0-10-.18-.18,0-5.43h1.49l.47.44h1.56l1.43-1.45V.47Z" style="fill: #faa"/>
          <path d="M52.17,15.62l-.47.44H50.14l0-2.65-.59-.63V6.36L50,5.89V1.76c-.49-.5-.76-.78-1.26-1.27l-2.94,0,0,10,.18.18,0,7,2.15,2.17,7.56,0V17.08l-1.43-1.45Z" style="fill: #faa"/>
          <path d="M65.88,11.57H61.49V9.25l-.41-.43V4.73L59.57,3.27,60,2.82l1.56,1.49h3.13l.77.77V7.89l.44.47Zm3.77-8c-1.2-1.2-1.86-1.87-3.06-3.06H57.31V18.77l1.09,1.08h3.09V15.78L60.3,14.63l.41-.45,1.17,1.1h2.18l.43-.43h1.39v5h2.85L70,18.6V11.3L69.65,11Z" style="fill: #faa"/>
          <path d="M88,.54V5.86l.41.43v9.37l.95.94-.41.45-1-1H86.15l-1.6-1.59V10.14l-.44-.46V1.38c-.32-.33-.51-.51-.84-.84h-3V6.75l-.44.47v7.27l-1.59,1.59H76.43l-1,1L75,16.6l1-.94V9.22l.41-.43V.54H73.75L72.19,2.1V19.85h7.48l2.52-2.52c.79.78,1.53,1.52,2.52,2.52H92.2V2.1L90.64.54Z" style="fill: #faa"/>
          <path d="M110.33,15.27l-.81.81h-3.27l-1.39,1.34-.41-.45,1.49-1.44V10.22l-.41-.43V4.73L104,3.27l.41-.45L106,4.31h3.1l.8.8V8.38l.44.46ZM114.1,3.89,110.75.54h-9V19.85h9.37l3.3-3.3V11.3L114.1,11Z" style="fill: #faa"/>
          <path d="M126.7,17.64l-1.64-1.56h-4.52V10.22l-.41-.43V4.73l-1.51-1.46.42-.44,1.56,1.48H125V8.38l.44.46v6.72l1.7,1.63ZM127,.54h-8.25L116.36,3V17.69l2.17,2.16h8.24c1-.94,1.48-1.47,2.42-2.42V2.7Z" style="fill: #faa"/>
          <path d="M130.87.47V3.24l1.43,1.45h1.56l.47-.44h1.56l0,2.65.59.63V14l-.44.47v4.13c.49.5.76.78,1.26,1.27l2.94,0,.05-10-.18-.18,0-5.43h1.5l.46.44h1.57c.55-.57.87-.89,1.43-1.45V.47Z" style="fill: #faa"/>
          <path d="M164.25,17.64l-1.64-1.56h-4.52V10.22l-.41-.43V4.73l-1.51-1.46.41-.44,1.57,1.48h4.38V8.38l.44.46v6.72l1.69,1.63Zm.33-17.1h-8.25L153.91,3V17.69l2.17,2.16h8.24l2.42-2.42V2.7Z" style="fill: #faa"/>
          <path d="M179.6,7.54h-5.42v2.67l1,1H177l1.35-1.51.41.45-.88,1.06v1.88l-.41.44v2.09l1.67,1.61-.42.45L177,16.08h-3.59l-1.69,1.63-.41-.45L173,15.65v-5l-.41-.43V4.73l-1.51-1.46.41-.44,2,1.91h4l.43-.43h3.21V2.1L179.6.54h-8.36L168.82,3V17.69L171,19.85h8.5l2.16-2.16V9.58Z" style="fill: #faa"/>
        </g>
        <g>
          <path d="M10.66,17.56,9,16H4.51V10.15L4.1,9.71V4.65L2.58,3.2,3,2.75,4.56,4.23H8.94V8.3l.44.47v6.71l1.7,1.63ZM11,.46H2.75C1.8,1.4,1.27,1.93.33,2.88V17.61c.84.84,1.31,1.32,2.16,2.16h8.24c.95-.94,1.48-1.47,2.42-2.42V2.62Z" style="fill: #ffb8b8"/>
          <path d="M26.81.46H24V8.3l.44.47v6.71l1.7,1.63-.42.45L24.07,16H20l-1.5,1.55-.45-.42,1.47-1.54V10.15l-.41-.44V.46H17L15.38,2.05V17.61l2.16,2.16h8.24c.95-.94,1.48-1.47,2.42-2.42V1.84Z" style="fill: #ffb8b8"/>
          <path d="M29.88.39V3.16L31.3,4.61h1.56l.47-.44h1.56l0,2.65.59.63v6.41l-.44.47v4.14l1.26,1.27H39.2l0-10-.18-.18,0-5.43h1.5l.46.44h1.57c.55-.57.87-.88,1.43-1.45V.39Z" style="fill: #ffb8b8"/>
          <path d="M52.1,15.54l-.46.44H50.08V13.32l-.59-.62V6.28L50,5.82l0-4.14L48.71.41l-2.94,0-.05,10,.18.18,0,7L48,19.73l7.56,0,0-2.77-1.44-1.44Z" style="fill: #ffb8b8"/>
          <path d="M65.82,11.5h-4.4V9.17L61,8.74V4.65L59.5,3.2l.42-.45,1.56,1.48H64.6l.78.77V7.81l.44.47Zm3.76-8-3-3.06H57.25V18.69l1.08,1.08h3.09V15.7l-1.19-1.15.42-.45,1.16,1.11H64l.43-.43h1.4v5h2.85l1.24-1.25v-7.3l-.33-.32Z" style="fill: #ffb8b8"/>
          <path d="M88,.46V5.78l.41.43v9.37l1,.94L88.9,17l-1-1H86.08l-1.59-1.59V10.07l-.44-.47V1.3L83.21.46h-3V6.67l-.44.47v7.27L78.17,16H76.36l-1,1-.41-.45,1-.94V9.14l.41-.43V.46H73.69L72.13,2V19.77h7.48l2.52-2.52,2.52,2.52h7.48V2L90.57.46Z" style="fill: #ffb8b8"/>
          <path d="M110.27,15.19l-.82.81h-3.26l-1.39,1.34-.42-.45,1.49-1.44v-5.3l-.41-.44V4.65L104,3.2l.42-.45,1.56,1.48H109l.81.8V8.3l.44.47ZM114,3.81,110.68.46h-9V19.77h9.36l3.3-3.3V11.22L114,10.9Z" style="fill: #ffb8b8"/>
          <path d="M126.64,17.56,125,16h-4.51V10.15l-.41-.44V4.65L118.56,3.2l.41-.45,1.56,1.48h4.39V8.3l.44.47v6.71l1.69,1.63ZM127,.46h-8.24c-1,.94-1.48,1.47-2.42,2.42V17.61l2.16,2.16h8.25l2.41-2.42V2.62C128.28,1.78,127.81,1.3,127,.46Z" style="fill: #ffb8b8"/>
          <path d="M130.81.39l0,2.77,1.44,1.45h1.56l.46-.44h1.56V6.84l.59.63v6.41l-.44.47,0,4.14,1.26,1.27h2.94l0-10L140,9.62l0-5.43h1.49l.47.44h1.56L145,3.16V.39Z" style="fill: #ffb8b8"/>
          <path d="M164.18,17.56,162.54,16H158V10.15l-.41-.44V4.65L156.1,3.2l.42-.45,1.56,1.48h4.39V8.3l.44.47v6.71l1.69,1.63Zm.33-17.1h-8.24c-1,.94-1.48,1.47-2.42,2.42V17.61L156,19.77h8.25l2.41-2.42V2.62C165.83,1.78,165.36,1.3,164.51.46Z" style="fill: #ffb8b8"/>
          <path d="M179.53,7.46h-5.41v2.67l1,1h1.76l1.36-1.52.41.45-.88,1.06v1.89l-.41.43v2.09l1.66,1.61-.41.45L177,16h-3.59l-1.69,1.63-.41-.45,1.67-1.61v-5l-.42-.43V4.65L171,3.2l.42-.45,2,1.91h4l.43-.43h3.21V2L179.53.46h-8.36l-2.41,2.42V17.61l2.16,2.16h8.5l2.16-2.16V9.5Z" style="fill: #ffb8b8"/>
        </g>
        <g>
          <path d="M10.6,17.48,9,15.92H4.44V10.07L4,9.63V4.58L2.52,3.12l.41-.45L4.49,4.15H8.88V8.22l.44.47V15.4L11,17ZM10.93.38H2.68C1.74,1.33,1.21,1.86.26,2.8V17.53l2.16,2.16h8.25l2.42-2.42V2.54C12.24,1.7,11.77,1.23,10.93.38Z" style="fill: #ffc6c6"/>
          <path d="M26.75.38H23.93V8.22l.44.47V15.4L26.06,17l-.41.45L24,15.92H20l-1.49,1.55L18,17.06l1.47-1.55V10.07l-.41-.44V.38H16.9L15.31,2V17.53l2.16,2.16h8.25l2.41-2.42V1.77Z" style="fill: #ffc6c6"/>
          <path d="M29.82.31l0,2.77,1.44,1.45H32.8l.46-.43h1.56V6.76l.59.63v6.42l-.44.46,0,4.14,1.26,1.27h2.94l0-10L39,9.54l0-5.43h1.49l.47.43h1.56L44,3.08V.31Z" style="fill: #ffc6c6"/>
          <path d="M52,15.46l-.47.44H50l0-2.65-.59-.62V6.2l.44-.46V1.6c-.49-.5-.76-.78-1.26-1.27L45.7.31l-.05,10,.18.18,0,7L48,19.65l7.56,0V16.92l-1.43-1.44Z" style="fill: #ffc6c6"/>
          <path d="M65.75,11.42H61.36V9.09L61,8.66V4.58L59.44,3.12l.41-.45,1.56,1.48h3.13l.77.77V7.74l.44.46Zm3.77-8L66.46.38H57.18V18.61l1.08,1.08h3.1V15.62l-1.19-1.15.41-.45,1.17,1.11h2.18l.42-.43h1.4v5H68.6l1.25-1.25v-7.3l-.33-.32Z" style="fill: #ffc6c6"/>
          <path d="M87.89.38V5.7l.41.44V15.5l1,.94-.41.45-1-1H86l-1.6-1.59V10L84,9.52V1.22L83.14.38h-3V6.6l-.44.46v7.27l-1.59,1.59H76.29l-1,1-.42-.45,1-.94V9.06l.41-.43V.38H73.62L72.06,1.94V19.69h7.48l2.52-2.52,2.52,2.52h7.48V1.94L90.51.38Z" style="fill: #ffc6c6"/>
          <path d="M110.2,15.11l-.81.81h-3.27l-1.39,1.34-.41-.45,1.49-1.44v-5.3l-.41-.44V4.58l-1.51-1.46.41-.45,1.56,1.48H109l.81.8V8.22l.44.47ZM114,3.73,110.62.38h-9V19.69H111l3.3-3.3V11.14l-.33-.32Z" style="fill: #ffc6c6"/>
          <path d="M126.57,17.48l-1.64-1.56h-4.52V10.07L120,9.63V4.58l-1.51-1.46.42-.45,1.56,1.48h4.38V8.22l.44.47V15.4L127,17ZM126.9.38h-8.25c-.94,1-1.47,1.48-2.42,2.42V17.53l2.17,2.16h8.24c1-.94,1.47-1.47,2.42-2.42V2.54C128.22,1.7,127.74,1.23,126.9.38Z" style="fill: #ffc6c6"/>
          <path d="M130.74.31V3.08l1.43,1.45h1.56l.47-.43h1.56l0,2.65.59.63v6.42l-.44.46v4.14l1.26,1.27h2.94l.05-10-.18-.18,0-5.43h1.5l.46.43h1.56l1.44-1.45,0-2.77Z" style="fill: #ffc6c6"/>
          <path d="M164.12,17.48l-1.64-1.56H158V10.07l-.41-.44V4.58L156,3.12l.41-.45L158,4.15h4.39V8.22l.44.47V15.4L164.53,17Zm.33-17.1H156.2L153.78,2.8V17.53l2.16,2.16h8.25l2.42-2.42V2.54C165.76,1.7,165.29,1.23,164.45.38Z" style="fill: #ffc6c6"/>
          <path d="M179.47,7.38h-5.42v2.67l1,1h1.77l1.35-1.52.41.45-.88,1.07V13l-.41.43v2.09L179,17.1l-.42.45-1.68-1.63h-3.59l-1.69,1.63-.42-.45,1.67-1.61v-5l-.41-.44V4.58L171,3.12l.41-.45,2,1.91h4l.43-.43H181V1.94L179.47.38h-8.36L168.69,2.8V17.53l2.16,2.16h8.5l2.16-2.16V9.42Z" style="fill: #ffc6c6"/>
        </g>
        <g>
          <path d="M10.53,17.41,8.89,15.85H4.37V10L4,9.56V4.5L2.45,3l.42-.45L4.43,4.07H8.81V8.15l.44.46v6.71L11,17ZM10.86.3H2.62L.2,2.72V17.45c.84.85,1.31,1.32,2.16,2.16H10.6L13,17.2V2.46C12.18,1.62,11.7,1.15,10.86.3Z" style="fill: #ffd4d4"/>
          <path d="M26.68.3H23.86V8.15l.44.46v6.71L26,17l-.42.45-1.64-1.56h-4l-1.5,1.54L18,17l1.47-1.55V10L19,9.56V.3H16.84l-1.6,1.6V17.45l2.17,2.16h8.24l2.42-2.41V1.69C27.53,1.15,27.23.84,26.68.3Z" style="fill: #ffd4d4"/>
          <path d="M29.75.24V3l1.43,1.45h1.56L33.2,4h1.56l0,2.64.59.63v6.42l-.44.46v4.14l1.26,1.27h2.94l0-10-.18-.17L39,4h1.5l.46.43h1.56L43.92,3l0-2.76Z" style="fill: #ffd4d4"/>
          <path d="M52,15.38l-.46.44H50V13.16l-.59-.62V6.12l.44-.46,0-4.14L48.58.25H45.63l0,10c.06.07.12.12.18.18l0,7,2.15,2.17,7.56,0V16.84L54,15.4Z" style="fill: #ffd4d4"/>
          <path d="M65.68,11.34H61.29V9l-.41-.43V4.5L59.37,3l.42-.45,1.56,1.48h3.12l.77.77V7.66l.44.46Zm3.77-8L66.4.3H57.12V18.53l1.08,1.08h3.09V15.54L60.1,14.39l.42-.45,1.16,1.11h2.18l.43-.43h1.39v5h2.86l1.24-1.24v-7.3l-.33-.32Z" style="fill: #ffd4d4"/>
          <path d="M87.82.3V5.63l.41.43v9.36l1,.94-.42.45-1-1H86l-1.59-1.6V9.91l-.44-.47V1.15L83.07.3h-3V6.52L79.64,7v7.27L78,15.85H76.23l-1,1-.41-.45,1-.94V9l.41-.44V.3H73.55L72,1.86V19.61h7.48L82,17.09c.78.79,1.52,1.53,2.52,2.52H92V1.86L90.44.3Z" style="fill: #ffd4d4"/>
          <path d="M110.13,15l-.81.82h-3.27l-1.38,1.33-.42-.45,1.49-1.44V10l-.41-.43V4.5L103.82,3l.42-.45,1.56,1.48h3.09l.8.81V8.15l.44.46ZM113.9,3.65,110.55.3h-9V19.61h9.37l3.3-3.3V11.07l-.33-.32Z" style="fill: #ffd4d4"/>
          <path d="M126.5,17.41l-1.64-1.56h-4.51V10l-.41-.43V4.5L118.42,3l.42-.45,1.56,1.48h4.39V8.15l.44.46v6.71L126.92,17ZM126.83.3h-8.24l-2.42,2.42V17.45l2.16,2.16h8.25L129,17.2V2.46Z" style="fill: #ffd4d4"/>
          <path d="M130.67.24V3l1.43,1.45h1.57l.46-.43h1.56V6.68l.59.63v6.42l-.44.46,0,4.14,1.26,1.27H140l0-10-.18-.17,0-5.43h1.49l.47.43h1.56L144.84,3V.24Z" style="fill: #ffd4d4"/>
          <path d="M164.05,17.41l-1.64-1.56H157.9V10l-.41-.43V4.5L156,3l.42-.45L158,4.07h4.38V8.15l.44.46v6.71l1.7,1.64ZM164.38.3h-8.24l-2.42,2.42V17.45l2.16,2.16h8.24l2.42-2.41V2.46Z" style="fill: #ffd4d4"/>
          <path d="M179.4,7.3H174V10l1,1h1.77l1.35-1.52.42.45L177.68,11v1.88l-.41.43v2.09L178.93,17l-.41.45-1.69-1.62h-3.59l-1.69,1.62-.41-.45,1.66-1.61v-5l-.41-.43V4.5L170.88,3l.42-.45,2,1.91h4l.43-.43H181V1.87L179.4.3H171l-2.41,2.42V17.45l2.16,2.16h8.49l2.17-2.16V9.35Z" style="fill: #ffd4d4"/>
        </g>
        <g>
          <path d="M10.47,17.33,8.82,15.77H4.31V9.91L3.9,9.48V4.42L2.39,3l.41-.45L4.36,4H8.75V8.07l.44.46v6.71l1.69,1.64ZM10.79.22H2.55C1.6,1.17,1.08,1.7.13,2.64V17.37l2.16,2.17h8.25c.94-.95,1.47-1.48,2.42-2.42V2.39Z" style="fill: #ffe3e3"/>
          <path d="M26.62.22H23.8V8.07l.44.46v6.71l1.69,1.64-.41.45-1.65-1.56h-4l-1.49,1.54-.45-.41,1.47-1.55V9.91L19,9.48V.22H16.77l-1.59,1.6V17.37l2.16,2.17h8.25L28,17.12V1.61Z" style="fill: #ffe3e3"/>
          <path d="M29.68.16V2.93L31.1,4.37l1.57,0L33.13,4h1.56V6.61l.59.62v6.42l-.44.46,0,4.14,1.26,1.27H39l0-10-.18-.18L38.9,4h1.49l.47.44,1.56,0,1.43-1.44V.16Z" style="fill: #ffe3e3"/>
          <path d="M51.91,15.31l-.47.43H49.88l0-2.64-.59-.63V6l.45-.46V1.44L48.51.17H45.57l0,10,.18.17,0,7,2.15,2.17,7.56,0V16.77L54,15.32Z" style="fill: #ffe3e3"/>
          <path d="M65.62,11.26H61.23V8.93l-.41-.43V4.42L59.31,3l.41-.45L61.28,4h3.13l.77.77V7.58l.44.46Zm3.77-8c-1.2-1.19-1.87-1.86-3.06-3.06H57.05V18.45l1.08,1.09h3.1V15.46L60,14.31l.41-.44L61.62,15h2.17l.43-.43h1.4v5h2.85l1.25-1.25V11l-.33-.32Z" style="fill: #ffe3e3"/>
          <path d="M87.76.22V5.55l.41.43v9.36l1,.95-.41.45-1-1H85.89l-1.6-1.6V9.83l-.44-.46V1.07L83,.22H80V6.44l-.44.46v7.27L78,15.77H76.16l-1,1-.42-.45,1-.95V8.91l.41-.44V.22H73.49L71.93,1.78V19.54h7.48L81.93,17l2.52,2.52h7.48V1.78L90.38.22Z" style="fill: #ffe3e3"/>
          <path d="M110.07,15c-.32.31-.5.49-.81.81H106L104.6,17.1l-.41-.45,1.49-1.44V9.91l-.41-.43V4.42L103.76,3l.41-.45L105.73,4h3.09l.81.81V8.07l.44.46Zm3.77-11.39L110.49.22h-9V19.54h9.36l3.31-3.31V11l-.33-.32Z" style="fill: #ffe3e3"/>
          <path d="M126.44,17.33l-1.64-1.56h-4.52V9.91l-.41-.43V4.42L118.36,3l.41-.45L120.33,4h4.39V8.07l.44.46v6.71l1.69,1.64ZM126.77.22h-8.25c-.94,1-1.47,1.48-2.42,2.42V17.37l2.16,2.17h8.25c.94-.95,1.47-1.48,2.42-2.42V2.39Z" style="fill: #ffe3e3"/>
          <path d="M130.61.16V2.93L132,4.37l1.56,0,.46-.44h1.56V6.61l.59.62v6.42l-.44.46v4.14L137,19.52h3l0-10-.17-.18,0-5.43h1.5l.46.44,1.56,0,1.44-1.44,0-2.77Z" style="fill: #ffe3e3"/>
          <path d="M164,17.33l-1.64-1.56h-4.52V9.91l-.41-.43V4.42L155.91,3l.41-.45L157.88,4h4.39V8.07l.44.46v6.71l1.69,1.64ZM164.32.22h-8.25l-2.42,2.42V17.37l2.16,2.17h8.25l2.42-2.42V2.39Z" style="fill: #ffe3e3"/>
          <path d="M179.34,7.22h-5.42V9.89l1,1h1.76l1.36-1.52.41.45-.88,1.07v1.88l-.41.43v2.1l1.67,1.6-.42.45-1.68-1.62h-3.6l-1.68,1.62-.42-.45,1.67-1.6v-5l-.41-.43V4.42L170.82,3l.41-.45,2,1.91h4l.43-.43h3.22V1.79L179.33.22H171l-2.42,2.42V17.37l2.16,2.17h8.5l2.16-2.17V9.27Z" style="fill: #ffe3e3"/>
        </g>
        <g>
          <path d="M10.4,17.25,8.76,15.69H4.24V9.83L3.83,9.4V4.34L2.32,2.88l.42-.45L4.3,3.91H8.68V8l.44.46v6.71l1.7,1.64ZM10.73.15H2.48L.07,2.56V17.3l2.16,2.16h8.24L12.89,17V2.31C12.05,1.46,11.57,1,10.73.15Z" style="fill: #fff1f1"/>
          <path d="M26.55.15H23.73V8l.44.46v6.71l1.69,1.64-.41.45-1.64-1.56h-4l-1.49,1.55-.45-.42,1.47-1.55V9.83l-.41-.43V.15H16.71l-1.6,1.59V17.3c.85.84,1.32,1.31,2.16,2.16h8.25C26.46,18.51,27,18,27.94,17V1.53Z" style="fill: #fff1f1"/>
          <path d="M29.62.08V2.85L31,4.29l1.56,0,.47-.44h1.55V6.53l.59.62v6.42l-.44.46v4.14L36,19.44l2.95,0,0-10-.17-.18,0-5.43h1.5l.46.44,1.56,0,1.44-1.44,0-2.77Z" style="fill: #fff1f1"/>
          <path d="M51.84,15.23l-.46.43H49.82V13l-.59-.63V6l.44-.46,0-4.14c-.5-.49-.77-.77-1.26-1.27h-3l0,10,.17.18,0,7,2.15,2.17,7.56.05V16.69l-1.43-1.45Z" style="fill: #fff1f1"/>
          <path d="M65.55,11.18H61.16V8.86l-.41-.44V4.34L59.24,2.88l.42-.45,1.56,1.48h3.12l.77.78V7.5l.44.46Zm3.77-8L66.26.15H57V18.37l1.09,1.09h3.09V15.39L60,14.24l.42-.45,1.16,1.1h2.18l.43-.43h1.39v5H68.4l1.25-1.25v-7.3l-.33-.32Z" style="fill: #fff1f1"/>
          <path d="M87.69.15V5.47l.41.43v9.36l1,1-.42.45-1-1H85.82l-1.59-1.6V9.75l-.44-.46V1L82.94.15H80V6.36l-.44.46v7.27l-1.6,1.6H76.1l-1,1-.41-.45.95-1V8.83L76,8.4V.15H73.42L71.87,1.7V19.46h7.48c1-1,1.73-1.74,2.52-2.52l2.52,2.52h7.48V1.7L90.31.15Z" style="fill: #fff1f1"/>
          <path d="M110,14.88l-.81.81h-3.27L104.53,17l-.41-.45,1.49-1.44V9.83l-.41-.43V4.34l-1.51-1.46.42-.45,1.56,1.48h3.09l.8.81V8l.44.46ZM113.77,3.5c-1.31-1.31-2-2-3.35-3.35h-9V19.46h9.37l3.3-3.31V10.91l-.33-.32Z" style="fill: #fff1f1"/>
          <path d="M126.37,17.25l-1.64-1.56h-4.51V9.83l-.41-.43V4.34l-1.52-1.46.42-.45,1.56,1.48h4.38V8l.44.46v6.71l1.7,1.64ZM126.7.15h-8.24L116,2.56V17.3l2.16,2.16h8.24L128.86,17V2.31C128,1.46,127.55,1,126.7.15Z" style="fill: #fff1f1"/>
          <path d="M130.54.08V2.85L132,4.29l1.56,0,.47-.44h1.56V6.53l.58.62v6.42l-.44.46,0,4.14,1.26,1.27,2.94,0,0-10-.18-.18,0-5.43h1.49l.47.44,1.56,0,1.43-1.44V.08Z" style="fill: #fff1f1"/>
          <path d="M163.92,17.25l-1.64-1.56h-4.51V9.83l-.42-.43V4.34l-1.51-1.46.42-.45,1.56,1.48h4.38V8l.44.46v6.71l1.7,1.64Zm.33-17.1H156l-2.42,2.41V17.3l2.16,2.16H164L166.41,17V2.31Z" style="fill: #fff1f1"/>
          <path d="M179.27,7.14h-5.41V9.81l1,1h1.77L178,9.34l.42.45-.88,1.06v1.88l-.41.43v2.1l1.66,1.6-.41.45-1.69-1.62h-3.59l-1.69,1.62-.41-.45,1.66-1.6v-5l-.41-.43V4.34l-1.51-1.46.42-.45,2,1.91h4l.43-.43h3.21V1.71L179.27.15h-8.36l-2.42,2.41V17.3l2.17,2.16h8.49l2.17-2.16V9.19Z" style="fill: #fff1f1"/>
        </g>
        <g>
          <path d="M10.34,17.17,8.69,15.61H4.18V9.75l-.41-.43V4.26L2.26,2.8l.41-.45L4.23,3.84H8.62V7.91l.44.46v6.72l1.69,1.63ZM10.66.07H2.42C1.47,1,.94,1.54,0,2.49V17.22l2.16,2.16h8.25c.94-.95,1.47-1.48,2.42-2.42V2.23Z" style="fill: #fff"/>
          <path d="M26.49.07H23.66V7.91l.44.46v6.72l1.7,1.63-.42.45-1.64-1.56h-4l-1.49,1.55-.45-.42,1.47-1.55V9.75l-.41-.43V.07H16.64L15.05,1.66V17.22l2.16,2.16h8.24L27.87,17V1.45Z" style="fill: #fff"/>
          <path d="M29.55,0V2.77L31,4.21l1.56,0L33,3.79h1.56V6.45l.58.62v6.42l-.44.46,0,4.14,1.26,1.27,2.94,0,.05-10-.18-.18,0-5.43h1.49l.47.44,1.56,0,1.43-1.44V0Z" style="fill: #fff"/>
          <path d="M51.78,15.15l-.47.44H49.75V12.93l-.58-.63V5.89l.45-.47V1.28L48.38,0H45.44l0,10,.18.18,0,7,2.15,2.17,7.56.05V16.61l-1.43-1.45Z" style="fill: #fff"/>
          <path d="M65.49,11.1H61.1V8.78l-.41-.43V4.26L59.18,2.8l.41-.45,1.56,1.49h3.13l.77.77V7.42l.44.46Zm3.77-8L66.2.07H56.92V18.29L58,19.38h3.1V15.31l-1.19-1.15.41-.45,1.16,1.1h2.18l.43-.43h1.4v5h2.85l1.25-1.25v-7.3l-.33-.32Z" style="fill: #fff"/>
          <path d="M87.62.07V5.39l.41.43v9.36l1,.95-.41.45-1-1H85.76c-.63-.62-1-1-1.6-1.6V9.67l-.44-.46V.91L82.88.07h-3V6.28l-.44.47V14l-1.59,1.6H76l-1,1-.42-.45,1-.95V8.75L76,8.32V.07H73.36L71.8,1.62V19.38h7.48l2.52-2.52c.78.78,1.53,1.52,2.52,2.52H91.8V1.62L90.25.07Z" style="fill: #fff"/>
          <path d="M109.94,14.8l-.81.81h-3.27L104.47,17l-.42-.45,1.5-1.44V9.75l-.41-.43V4.26L103.62,2.8l.42-.45,1.56,1.48h3.09l.81.81V7.91l.44.46Zm3.77-11.38L110.36.07h-9V19.38h9.36l3.31-3.3V10.83l-.33-.32Z" style="fill: #fff"/>
          <path d="M126.31,17.17l-1.64-1.56h-4.52V9.75l-.41-.43V4.26L118.23,2.8l.41-.45,1.56,1.49h4.39V7.91l.44.46v6.72l1.69,1.63Zm.33-17.1h-8.25L116,2.49V17.22c.85.84,1.32,1.31,2.16,2.16h8.25c.94-.95,1.47-1.48,2.42-2.42V2.23Z" style="fill: #fff"/>
          <path d="M130.48,0l0,2.77,1.44,1.44,1.56,0,.46-.44h1.56V6.45l.59.62v6.42l-.44.46,0,4.14,1.26,1.27,3,0,0-10-.17-.18,0-5.43h1.5l.46.44,1.56,0,1.44-1.44,0-2.77Z" style="fill: #fff"/>
          <path d="M163.86,17.17l-1.65-1.56H157.7V9.75l-.41-.43V4.26L155.78,2.8l.41-.45,1.56,1.49h4.39V7.91l.44.46v6.72l1.69,1.63Zm.32-17.1h-8.24l-2.42,2.42V17.22l2.16,2.16h8.25L166.35,17V2.23Z" style="fill: #fff"/>
          <path d="M179.2,7.06h-5.41V9.74l1,1h1.76L178,9.26l.41.45-.88,1.06v1.88l-.41.44v2.09l1.67,1.6-.42.45-1.68-1.62H173l-1.68,1.62-.42-.45,1.67-1.6v-5l-.41-.43V4.26L170.69,2.8l.41-.45,2,1.91h4l.43-.42h3.22V1.63L179.2.07h-8.35l-2.42,2.42V17.22l2.16,2.16h8.5l2.16-2.16V9.11Z" style="fill: #fff"/>
        </g>
      </g>
    </g>
  </g>
</svg>
