<svg width="212" height="140" viewBox="0 0 212 140" fill="none" xmlns="http://www.w3.org/2000/svg">
<g filter="url(#filter0_d_2_240)">
<path d="M103.086 71.8811C103.086 72.5052 102.58 73.0111 101.956 73.0111C101.332 73.0111 100.826 72.5052 100.826 71.8811C100.826 71.2569 101.332 70.751 101.956 70.751C102.58 70.751 103.086 71.2569 103.086 71.8811Z" fill="white"/>
</g>
<g filter="url(#filter1_d_2_240)">
<path d="M69.648 88.8827C57.3354 92.7076 56.0237 74.3953 57.8516 66.2123C58.1314 65.2092 58.1049 64.1453 57.7754 63.1574C56.7346 60.6187 53.8236 59.8402 51.7334 58.3678C44.312 52.4442 32.1009 51.5979 26.0673 59.8571C25.6455 60.4388 25.28 61.0594 24.9757 61.7104C24.3446 62.9269 24.1762 64.331 24.5018 65.6622C24.6868 66.2911 25.0587 66.8489 25.5681 67.2616C39.9539 73.5152 80.1581 42.2471 91.5229 32.1178C93.7295 30.0348 95.8039 27.8162 97.7342 25.475C98.6835 24.3147 99.5678 23.1028 100.383 21.8446C101.19 20.6285 101.852 19.322 102.355 17.952C102.473 17.6275 102.564 17.2935 102.625 16.9535C102.688 16.6749 102.688 16.3858 102.625 16.1072C102.625 16.0649 102.625 16.0565 102.625 16.1072C102.625 16.1495 102.625 16.1072 102.668 16.1072C102.567 16.1139 102.467 16.1338 102.372 16.1665C102.043 16.2785 101.728 16.426 101.432 16.6065C100.141 17.4139 98.9128 18.3192 97.7596 19.3144C95.3986 21.3369 93.1477 23.4609 90.9052 25.5596C88.6627 27.6582 86.4879 29.7907 84.3215 31.9909C71.3489 45.0735 58.8586 58.6132 46.4699 72.2289C38.2445 81.3174 30.0559 90.4482 21.9039 99.6213L21.7854 99.7482H21.6162C20.8292 99.9936 20.0676 100.222 19.2214 100.408L18.8744 100.476H18.6375C18.5476 100.488 18.4565 100.488 18.3667 100.476C18.2801 100.449 18.2001 100.404 18.1316 100.344C18.0632 100.284 18.0078 100.211 17.969 100.129C17.927 100.023 17.927 99.905 17.969 99.799C17.981 99.7374 18.0009 99.6777 18.0282 99.6213L18.0959 99.5367L18.1721 99.4689L18.2736 99.3843L18.4344 99.2828L18.7306 99.122C19.1029 98.9274 19.4752 98.7497 19.8391 98.5889L20.1184 98.4619L20.3638 98.3435C20.5053 98.266 20.6411 98.1783 20.77 98.0811C21.0661 97.8611 21.3539 97.6242 21.6162 97.3703C22.1916 96.871 22.7501 96.3379 23.3086 95.7879C25.4919 93.6046 27.5398 91.2944 29.6384 89.0181C41.951 75.0807 53.9674 60.8557 65.84 46.5968C54.3482 61.118 42.9072 75.7492 30.6285 89.6273C28.5891 91.946 26.4735 94.2477 24.248 96.4648C23.6894 97.0234 23.1225 97.5649 22.5132 98.0981C22.2088 98.3721 21.8896 98.6292 21.557 98.8681C21.3729 99.0106 21.1776 99.1379 20.9731 99.2489L20.6769 99.3928L20.4061 99.5113C20.0422 99.6721 19.6868 99.8413 19.3568 100.019L19.1198 100.146L19.0352 100.197V100.137C19.0609 100.093 19.0781 100.044 19.086 99.9936C19.1154 99.8971 19.1154 99.794 19.086 99.6974C19.0414 99.5938 18.9641 99.5076 18.866 99.452C18.8281 99.4239 18.7849 99.4037 18.739 99.3928C18.7 99.3843 18.6596 99.3843 18.6206 99.3928H18.6883L18.9421 99.342C19.6783 99.1812 20.4569 98.9443 21.21 98.7158L20.9392 98.902C29.063 89.7233 37.2573 80.5981 45.5221 71.5266C57.9447 57.9277 70.4688 44.3627 83.4076 31.2377C85.5852 29.0488 87.8023 26.8853 90.059 24.7472C92.3015 22.6147 94.544 20.5161 96.9642 18.502C98.165 17.4635 99.4437 16.5186 100.789 15.6757C101.177 15.4454 101.588 15.2581 102.016 15.1171C102.287 15.0205 102.576 14.9829 102.862 15.0071L103.159 15.0918C103.265 15.1407 103.365 15.2032 103.455 15.2779C103.589 15.4106 103.69 15.5729 103.751 15.7518C103.877 16.1952 103.895 16.6626 103.802 17.1142C103.733 17.5105 103.634 17.9009 103.505 18.282C102.981 19.7351 102.282 21.119 101.424 22.4032C100.588 23.704 99.6784 24.9557 98.6989 26.1519C96.7305 28.5395 94.6136 30.8006 92.3607 32.9217C78.3641 45.0312 45.6575 70.638 27.1336 69.2248C26.2706 69.0285 25.4616 68.6442 24.7642 68.0994C24.0847 67.5603 23.5785 66.8335 23.3086 66.0092C23.0744 65.2218 23.0194 64.3919 23.1479 63.5805C23.2621 62.7919 23.4932 62.0247 23.8333 61.3042C26.592 55.5667 33.4634 52.0803 40.1316 52.6303C44.6235 53.0452 48.8982 54.7563 52.4357 57.5554C55.0337 59.2986 59.104 60.8811 58.9601 64.6891C56.9377 72.9482 56.5992 92.2676 69.648 88.8827Z" fill="white"/>
</g>
<g filter="url(#filter2_d_2_240)">
<path d="M76.0271 79.3115C70.9497 72.8887 59.1026 90.3125 69.1219 86.5975C72.5068 85.3367 73.2091 81.3763 75.8494 79.1677C76.2809 78.8123 76.2556 79.6669 76.2048 79.3961C65.4154 98.597 88.255 75.9266 91.3099 70.8493C99.2645 60.5761 105.29 49.152 112.059 38.1849C112.55 38.3711 111.027 37.6603 113.075 38.7688C102.032 54.771 90.8106 71.0354 80.3259 87.5538C80.1206 87.8771 79.9423 88.2167 79.7928 88.5692C79.9536 88.3069 79.2173 87.9007 79.1158 88.0446C88.3651 78.9815 101.608 67.9467 90.5568 89.4662C90.5568 89.2885 90.0829 89.1531 89.9898 89.2124C93.7894 85.7682 97.7412 81.444 99.7806 76.8829C99.8481 76.9758 99.9451 77.0432 100.056 77.0739C100.166 77.1046 100.284 77.097 100.39 77.0521C98.0374 80.5047 95.888 84.8035 95.6849 89.0008C95.6501 88.9728 95.6097 88.9526 95.5664 88.9416C100.187 86.0136 102.336 80.3608 106.889 77.2721C114.048 74.2511 104.976 86.5129 103.741 88.2731C101.845 86.9783 103.149 87.9769 102.776 87.6384C108.878 79.5654 121.156 67.879 110.325 87.0206C109.952 87.1645 111.171 86.9106 109.478 86.3352C109.326 86.4198 109.411 86.3352 109.394 86.3352C115.529 78.7192 127.579 67.7182 117.754 86.1575C117.605 86.407 117.48 86.6706 117.382 86.9445C117.382 86.716 116.942 86.5044 116.832 86.5891C120.555 83.7965 122.916 79.6077 125.701 75.9774C128.764 75.1312 123.467 84.9559 124.854 86.8683C128.722 84.6597 131.066 80.3439 133.858 76.959L134.527 76.8998L134.891 77.4414C131.709 85.1843 130.617 90.8287 138.639 81.6133C140.755 79.2015 142.744 76.6713 144.656 74.1157C146.568 71.5601 148.422 68.9283 150.216 66.2712C157.341 55.6824 163.84 44.6852 169.679 33.3361L170.221 32.2783L170.491 31.7536L170.542 31.6436C170.593 31.7282 170.441 31.449 170.618 32.0413C171.972 32.5406 171.304 32.0413 171.507 32.1767L171.431 32.2698C170.957 32.8452 170.491 33.5222 170.034 34.1738C169.129 35.477 168.24 36.7971 167.377 38.1511C165.645 40.8364 163.953 43.5472 162.3 46.2833C159.033 51.7499 155.928 57.2843 153.093 62.9878C150.218 68.602 147.738 74.4099 145.671 80.3693C144.66 83.3346 143.89 86.3768 143.37 89.4662C143.12 90.9824 142.993 92.5162 142.989 94.0528C142.964 95.5767 143.175 97.0954 143.615 98.5547C144.021 100.01 144.87 101.302 146.044 102.253C147.257 103.242 148.722 103.872 150.275 104.072C151.897 104.315 153.544 104.346 155.175 104.165L155.725 104.089H155.792C155.733 104.089 155.75 104.089 155.648 104.224C155.596 104.292 155.566 104.375 155.564 104.461C155.558 104.547 155.579 104.633 155.623 104.707C155.649 104.757 155.684 104.803 155.725 104.842C155.56 104.778 155.39 104.73 155.217 104.698L154.625 104.563C153.778 104.402 152.991 104.267 152.154 104.148C148.811 103.674 145.435 103.302 142.058 103.023C138.682 102.744 135.288 102.447 131.903 102.177C104.78 100.294 77.5778 99.7941 50.4033 100.679C36.8637 101.144 23.2649 102.007 9.78449 103.463L9.66602 102.337C26.1505 101.119 42.6322 99.9707 59.111 98.8932C75.5955 97.827 92.1138 96.7353 108.59 95.9399C125.066 95.1444 141.593 94.3743 158.128 93.8751C166.387 93.6212 174.646 93.435 182.914 93.4012C187.043 93.4012 191.176 93.4435 195.311 93.5281C196.344 93.5281 197.367 93.6043 198.408 93.6381C199.449 93.672 200.473 93.7058 201.497 93.7905L204.594 94.0189L207.666 94.3913L204.586 94.0612L201.497 93.8835C200.465 93.7989 199.432 93.7989 198.4 93.7566C197.367 93.7143 196.335 93.6804 195.303 93.6804C191.173 93.6297 187.043 93.6297 182.914 93.6804C174.655 93.8046 166.398 94.0415 158.145 94.3913C141.643 95.0513 125.142 95.9483 108.658 96.93C92.1731 97.9116 75.6547 98.9017 59.1956 100.002C42.7365 101.102 26.252 102.244 9.78449 103.463L9.66602 102.337C23.2056 100.873 36.796 100.01 50.4118 99.5448C77.6314 98.6601 104.878 99.16 132.047 101.043C135.432 101.296 138.817 101.579 142.202 101.889C145.587 102.202 148.972 102.549 152.357 103.006C153.203 103.133 154.049 103.268 154.895 103.437L155.538 103.581C155.781 103.64 156.018 103.716 156.249 103.81L156.359 103.861L156.503 103.954C156.589 104.02 156.663 104.1 156.723 104.191C156.774 104.29 156.798 104.401 156.791 104.512C156.784 104.622 156.746 104.728 156.681 104.817C156.611 104.913 156.522 104.994 156.419 105.054L156.258 105.113L156.029 105.181C155.795 105.231 155.557 105.265 155.318 105.282C153.567 105.478 151.797 105.441 150.055 105.172C148.271 104.947 146.587 104.223 145.198 103.082C143.858 101.991 142.889 100.514 142.422 98.8509C141.941 97.3059 141.702 95.6961 141.711 94.0782C141.711 92.4842 141.847 90.8932 142.117 89.3224C142.652 86.1913 143.441 83.1092 144.478 80.107C146.566 74.0975 149.066 68.239 151.959 62.5732C154.811 56.8781 157.925 51.293 161.208 45.801C162.85 43.0536 164.542 40.3343 166.286 37.6434C167.154 36.295 168.049 34.958 168.968 33.6322C169.434 32.9637 169.882 32.3121 170.424 31.6436L170.551 31.5082L170.635 31.4236C170.872 31.5421 170.229 30.9751 171.651 31.4913C171.845 32.1429 171.651 31.9059 171.651 32.0329V32.1429L171.574 32.2952L171.304 32.8368L170.754 33.8946C164.89 45.2689 158.363 56.2889 151.206 66.8974C149.401 69.5545 147.539 72.1807 145.621 74.7757C143.7 77.3144 141.694 79.9123 139.536 82.3918C130.82 92.648 129.289 86.6737 133.68 77.1283L134.772 77.6445C128.062 87.5284 119.65 94.8905 125.464 76.5782C125.396 77.0521 126.513 77.0775 126.361 76.9252C125.937 78.1437 114.573 93.1473 116.57 85.709C118.097 82.9012 119.424 79.9885 120.539 76.9929C116.307 79.5315 113.557 84.0081 109.961 87.3337C108.175 86.7837 109.495 86.4283 109.115 86.4875C110.78 83.6015 112.269 80.6173 113.574 77.5514C110.494 80.1493 106.593 84.7443 103.631 88.3492C103.225 88.0361 104.477 89.1362 102.556 87.7992C104.672 84.6174 107.498 81.0886 108.48 77.6445C104.113 80.1831 101.321 85.9629 97.1997 89.3562C92.2069 92.318 95.3887 83.8473 96.3534 81.791C96.9627 80.5893 99.7383 73.4726 100.898 77.0267C98.8583 82.1041 94.661 86.4367 90.6583 90.1432C86.478 91.5649 94.8895 80.3524 93.4001 78.1014C91.0137 76.9336 76.7548 94.0951 78.8281 87.6722C89.4398 70.8154 100.737 54.3817 112.152 38.058C114.251 39.1496 112.652 38.5488 113.126 38.7688C106.102 49.6598 100.009 61.0669 91.9023 71.2893C88.5681 76.9759 64.4592 99.5786 75.7817 79.2184C75.7817 78.9307 75.7817 79.5569 76.154 79.3792C74.8254 81.9517 67.7425 91.9203 64.6707 86.2167C62.5975 82.4087 72.4645 73.4303 76.0609 79.2777L76.0271 79.3115Z" fill="white"/>
</g>
<defs>
<filter id="filter0_d_2_240" x="96.8262" y="70.751" width="10.2598" height="10.2598" filterUnits="userSpaceOnUse" color-interpolation-filters="sRGB">
<feFlood flood-opacity="0" result="BackgroundImageFix"/>
<feColorMatrix in="SourceAlpha" type="matrix" values="0 0 0 0 0 0 0 0 0 0 0 0 0 0 0 0 0 0 127 0" result="hardAlpha"/>
<feOffset dy="4"/>
<feGaussianBlur stdDeviation="2"/>
<feComposite in2="hardAlpha" operator="out"/>
<feColorMatrix type="matrix" values="0 0 0 0 0 0 0 0 0 0 0 0 0 0 0 0 0 0 0.75 0"/>
<feBlend mode="normal" in2="BackgroundImageFix" result="effect1_dropShadow_2_240"/>
<feBlend mode="normal" in="SourceGraphic" in2="effect1_dropShadow_2_240" result="shape"/>
</filter>
<filter id="filter1_d_2_240" x="13.9375" y="15" width="93.9238" height="93.4854" filterUnits="userSpaceOnUse" color-interpolation-filters="sRGB">
<feFlood flood-opacity="0" result="BackgroundImageFix"/>
<feColorMatrix in="SourceAlpha" type="matrix" values="0 0 0 0 0 0 0 0 0 0 0 0 0 0 0 0 0 0 127 0" result="hardAlpha"/>
<feOffset dy="4"/>
<feGaussianBlur stdDeviation="2"/>
<feComposite in2="hardAlpha" operator="out"/>
<feColorMatrix type="matrix" values="0 0 0 0 0 0 0 0 0 0 0 0 0 0 0 0 0 0 0.75 0"/>
<feBlend mode="normal" in2="BackgroundImageFix" result="effect1_dropShadow_2_240"/>
<feBlend mode="normal" in="SourceGraphic" in2="effect1_dropShadow_2_240" result="shape"/>
</filter>
<filter id="filter2_d_2_240" x="5.66602" y="31.2705" width="206" height="82.1357" filterUnits="userSpaceOnUse" color-interpolation-filters="sRGB">
<feFlood flood-opacity="0" result="BackgroundImageFix"/>
<feColorMatrix in="SourceAlpha" type="matrix" values="0 0 0 0 0 0 0 0 0 0 0 0 0 0 0 0 0 0 127 0" result="hardAlpha"/>
<feOffset dy="4"/>
<feGaussianBlur stdDeviation="2"/>
<feComposite in2="hardAlpha" operator="out"/>
<feColorMatrix type="matrix" values="0 0 0 0 0 0 0 0 0 0 0 0 0 0 0 0 0 0 0.75 0"/>
<feBlend mode="normal" in2="BackgroundImageFix" result="effect1_dropShadow_2_240"/>
<feBlend mode="normal" in="SourceGraphic" in2="effect1_dropShadow_2_240" result="shape"/>
</filter>
</defs>
</svg>
